ply
format ascii 1.0
element vertex 900
property float x
property float y
property float z
property uchar red
property uchar green
property uchar blue
property uchar alpha
element face 1682
property list uchar int vertex_indices
end_header
-450 0 -750 255 127 255 255
-445 0 -750 255 127 255 255
-440 0 -750 255 127 255 255
-435 0 -750 255 127 255 255
-430 0 -750 255 127 255 255
-425 0 -750 255 127 255 255
-420 0 -750 255 127 255 255
-415 0 -750 255 127 255 255
-410 0 -750 255 127 255 255
-405 0 -750 255 127 255 255
-400 0 -750 255 127 255 255
-395 0 -750 255 127 255 255
-390 0 -750 255 127 255 255
-385 0 -750 255 127 255 255
-380 0 -750 255 127 255 255
-375 0 -750 255 127 255 255
-370 0 -750 255 127 255 255
-365 0 -750 255 127 255 255
-360 0 -750 255 127 255 255
-355 0 -750 255 127 255 255
-350 0 -750 255 127 255 255
-345 0 -750 255 127 255 255
-340 0 -750 255 127 255 255
-335 0 -750 255 127 255 255
-330 0 -750 255 127 255 255
-325 0 -750 255 127 255 255
-320 0 -750 255 127 255 255
-315 0 -750 255 127 255 255
-310 0 -750 255 127 255 255
-305 0 -750 255 127 255 255
-450 0 -745 255 127 255 255
-445 0 -745 255 127 255 255
-440 0 -745 255 127 255 255
-435 0 -745 255 127 255 255
-430 0 -745 255 127 255 255
-425 0 -745 255 127 255 255
-420 0 -745 255 127 255 255
-415 0 -745 255 127 255 255
-410 0 -745 255 127 255 255
-405 0 -745 255 127 255 255
-400 0 -745 255 127 255 255
-395 0 -745 255 127 255 255
-390 0 -745 255 127 255 255
-385 0 -745 255 127 255 255
-380 0 -745 255 127 255 255
-375 0 -745 255 127 255 255
-370 0 -745 255 127 255 255
-365 0 -745 255 127 255 255
-360 0 -745 255 127 255 255
-355 0 -745 255 127 255 255
-350 0 -745 255 127 255 255
-345 0 -745 255 127 255 255
-340 0 -745 255 127 255 255
-335 0 -745 255 127 255 255
-330 0 -745 255 127 255 255
-325 0 -745 255 127 255 255
-320 0 -745 255 127 255 255
-315 0 -745 255 127 255 255
-310 0 -745 255 127 255 255
-305 0 -745 255 127 255 255
-450 0 -740 255 127 255 255
-445 0 -740 255 127 255 255
-440 0 -740 255 127 255 255
-435 0 -740 255 127 255 255
-430 0 -740 255 127 255 255
-425 0 -740 255 127 255 255
-420 0 -740 255 127 255 255
-415 0 -740 255 127 255 255
-410 0 -740 255 127 255 255
-405 0 -740 255 127 255 255
-400 0 -740 255 127 255 255
-395 0 -740 255 127 255 255
-390 0 -740 255 127 255 255
-385 0 -740 255 127 255 255
-380 0 -740 255 127 255 255
-375 0 -740 255 127 255 255
-370 0 -740 255 127 255 255
-365 0 -740 255 127 255 255
-360 0 -740 255 127 255 255
-355 0 -740 255 127 255 255
-350 0 -740 255 127 255 255
-345 0 -740 255 127 255 255
-340 0 -740 255 127 255 255
-335 0 -740 255 127 255 255
-330 0 -740 255 127 255 255
-325 0 -740 255 127 255 255
-320 0 -740 255 127 255 255
-315 0 -740 255 127 255 255
-310 0 -740 255 127 255 255
-305 0 -740 255 127 255 255
-450 0 -735 255 127 255 255
-445 0 -735 255 127 255 255
-440 0 -735 255 127 255 255
-435 0 -735 255 127 255 255
-430 0 -735 255 127 255 255
-425 0 -735 255 127 255 255
-420 0 -735 255 127 255 255
-415 0 -735 255 127 255 255
-410 0 -735 255 127 255 255
-405 0 -735 255 127 255 255
-400 0 -735 255 127 255 255
-395 0 -735 255 127 255 255
-390 0 -735 255 127 255 255
-385 0 -735 255 127 255 255
-380 0 -735 255 127 255 255
-375 0 -735 255 127 255 255
-370 0 -735 255 127 255 255
-365 0 -735 255 127 255 255
-360 0 -735 255 127 255 255
-355 0 -735 255 127 255 255
-350 0 -735 255 127 255 255
-345 0 -735 255 127 255 255
-340 0 -735 255 127 255 255
-335 0 -735 255 127 255 255
-330 0 -735 255 127 255 255
-325 0 -735 255 127 255 255
-320 0 -735 255 127 255 255
-315 0 -735 255 127 255 255
-310 0 -735 255 127 255 255
-305 0 -735 255 127 255 255
-450 0 -730 255 127 255 255
-445 0 -730 255 127 255 255
-440 0 -730 255 127 255 255
-435 0 -730 255 127 255 255
-430 0 -730 255 127 255 255
-425 0 -730 255 127 255 255
-420 0 -730 255 127 255 255
-415 0 -730 255 127 255 255
-410 0 -730 255 127 255 255
-405 0 -730 255 127 255 255
-400 0 -730 255 127 255 255
-395 0 -730 255 127 255 255
-390 0 -730 255 127 255 255
-385 0 -730 255 127 255 255
-380 0 -730 255 127 255 255
-375 0 -730 255 127 255 255
-370 0 -730 255 127 255 255
-365 0 -730 255 127 255 255
-360 0 -730 255 127 255 255
-355 0 -730 255 127 255 255
-350 0 -730 255 127 255 255
-345 0 -730 255 127 255 255
-340 0 -730 255 127 255 255
-335 0 -730 255 127 255 255
-330 0 -730 255 127 255 255
-325 0 -730 255 127 255 255
-320 0 -730 255 127 255 255
-315 0 -730 255 127 255 255
-310 0 -730 255 127 255 255
-305 0 -730 255 127 255 255
-450 0 -725 255 127 255 255
-445 0 -725 255 127 255 255
-440 0 -725 255 127 255 255
-435 0 -725 255 127 255 255
-430 0 -725 255 127 255 255
-425 0 -725 255 127 255 255
-420 0 -725 255 127 255 255
-415 0 -725 255 127 255 255
-410 0 -725 255 127 255 255
-405 0 -725 255 127 255 255
-400 0 -725 255 127 255 255
-395 0 -725 255 127 255 255
-390 0 -725 255 127 255 255
-385 0 -725 255 127 255 255
-380 0 -725 255 127 255 255
-375 0 -725 255 127 255 255
-370 0 -725 255 127 255 255
-365 0 -725 255 127 255 255
-360 0 -725 255 127 255 255
-355 0 -725 255 127 255 255
-350 0 -725 255 127 255 255
-345 0 -725 255 127 255 255
-340 0 -725 255 127 255 255
-335 0 -725 255 127 255 255
-330 0 -725 255 127 255 255
-325 0 -725 255 127 255 255
-320 0 -725 255 127 255 255
-315 0 -725 255 127 255 255
-310 0 -725 255 127 255 255
-305 0 -725 255 127 255 255
-450 0 -720 255 127 255 255
-445 0 -720 255 127 255 255
-440 0 -720 255 127 255 255
-435 0 -720 255 127 255 255
-430 0 -720 255 127 255 255
-425 0 -720 255 127 255 255
-420 0 -720 255 127 255 255
-415 0 -720 255 127 255 255
-410 0 -720 255 127 255 255
-405 0 -720 255 127 255 255
-400 0 -720 255 127 255 255
-395 0 -720 255 127 255 255
-390 0 -720 255 127 255 255
-385 0 -720 255 127 255 255
-380 0 -720 255 127 255 255
-375 0 -720 255 127 255 255
-370 0 -720 255 127 255 255
-365 0 -720 255 127 255 255
-360 0 -720 255 127 255 255
-355 0 -720 255 127 255 255
-350 0 -720 255 127 255 255
-345 0 -720 255 127 255 255
-340 0 -720 255 127 255 255
-335 0 -720 255 127 255 255
-330 0 -720 255 127 255 255
-325 0 -720 255 127 255 255
-320 0 -720 255 127 255 255
-315 0 -720 255 127 255 255
-310 0 -720 255 127 255 255
-305 0 -720 255 127 255 255
-450 0 -715 255 127 255 255
-445 0 -715 255 127 255 255
-440 0 -715 255 127 255 255
-435 0 -715 255 127 255 255
-430 0 -715 255 127 255 255
-425 0 -715 255 127 255 255
-420 0 -715 255 127 255 255
-415 0 -715 255 127 255 255
-410 0 -715 255 127 255 255
-405 0 -715 255 127 255 255
-400 0 -715 255 127 255 255
-395 0 -715 255 127 255 255
-390 0 -715 255 127 255 255
-385 0 -715 255 127 255 255
-380 0 -715 255 127 255 255
-375 0 -715 255 127 255 255
-370 0 -715 255 127 255 255
-365 0 -715 255 127 255 255
-360 0 -715 255 127 255 255
-355 0 -715 255 127 255 255
-350 0 -715 255 127 255 255
-345 0 -715 255 127 255 255
-340 0 -715 255 127 255 255
-335 0 -715 255 127 255 255
-330 0 -715 255 127 255 255
-325 0 -715 255 127 255 255
-320 0 -715 255 127 255 255
-315 0 -715 255 127 255 255
-310 0 -715 255 127 255 255
-305 0 -715 255 127 255 255
-450 0 -710 255 127 255 255
-445 0 -710 255 127 255 255
-440 0 -710 255 127 255 255
-435 0 -710 255 127 255 255
-430 0 -710 255 127 255 255
-425 0 -710 255 127 255 255
-420 0 -710 255 127 255 255
-415 0 -710 255 127 255 255
-410 0 -710 255 127 255 255
-405 0 -710 255 127 255 255
-400 0 -710 255 127 255 255
-395 0 -710 255 127 255 255
-390 0 -710 255 127 255 255
-385 0 -710 255 127 255 255
-380 0 -710 255 127 255 255
-375 0 -710 255 127 255 255
-370 0 -710 255 127 255 255
-365 0 -710 255 127 255 255
-360 0 -710 255 127 255 255
-355 0 -710 255 127 255 255
-350 0 -710 255 127 255 255
-345 0 -710 255 127 255 255
-340 0 -710 255 127 255 255
-335 0 -710 255 127 255 255
-330 0 -710 255 127 255 255
-325 0 -710 255 127 255 255
-320 0 -710 255 127 255 255
-315 0 -710 255 127 255 255
-310 0 -710 255 127 255 255
-305 0 -710 255 127 255 255
-450 0 -705 255 127 255 255
-445 0 -705 255 127 255 255
-440 0 -705 255 127 255 255
-435 0 -705 255 127 255 255
-430 0 -705 255 127 255 255
-425 0 -705 255 127 255 255
-420 0 -705 255 127 255 255
-415 0 -705 255 127 255 255
-410 0 -705 255 127 255 255
-405 0 -705 255 127 255 255
-400 0 -705 255 127 255 255
-395 0 -705 255 127 255 255
-390 0 -705 255 127 255 255
-385 0 -705 255 127 255 255
-380 0 -705 255 127 255 255
-375 0 -705 255 127 255 255
-370 0 -705 255 127 255 255
-365 0 -705 255 127 255 255
-360 0 -705 255 127 255 255
-355 0 -705 255 127 255 255
-350 0 -705 255 127 255 255
-345 0 -705 255 127 255 255
-340 0 -705 255 127 255 255
-335 0 -705 255 127 255 255
-330 0 -705 255 127 255 255
-325 0 -705 255 127 255 255
-320 0 -705 255 127 255 255
-315 0 -705 255 127 255 255
-310 0 -705 255 127 255 255
-305 0 -705 255 127 255 255
-450 0 -700 255 127 255 255
-445 0 -700 255 127 255 255
-440 0 -700 255 127 255 255
-435 0 -700 255 127 255 255
-430 0 -700 255 127 255 255
-425 0 -700 255 127 255 255
-420 0 -700 255 127 255 255
-415 0 -700 255 127 255 255
-410 0 -700 255 127 255 255
-405 0 -700 255 127 255 255
-400 0 -700 255 127 255 255
-395 0 -700 255 127 255 255
-390 0 -700 255 127 255 255
-385 0 -700 255 127 255 255
-380 0 -700 255 127 255 255
-375 0 -700 255 127 255 255
-370 0 -700 255 127 255 255
-365 0 -700 255 127 255 255
-360 0 -700 255 127 255 255
-355 0 -700 255 127 255 255
-350 0 -700 255 127 255 255
-345 0 -700 255 127 255 255
-340 0 -700 255 127 255 255
-335 0 -700 255 127 255 255
-330 0 -700 255 127 255 255
-325 0 -700 255 127 255 255
-320 0 -700 255 127 255 255
-315 0 -700 255 127 255 255
-310 0 -700 255 127 255 255
-305 7.4678e-24 -700 255 127 255 255
-450 0 -695 255 127 255 255
-445 0 -695 255 127 255 255
-440 0 -695 255 127 255 255
-435 0 -695 255 127 255 255
-430 0 -695 255 127 255 255
-425 0 -695 255 127 255 255
-420 0 -695 255 127 255 255
-415 0 -695 255 127 255 255
-410 0 -695 255 127 255 255
-405 0 -695 255 127 255 255
-400 0 -695 255 127 255 255
-395 0 -695 255 127 255 255
-390 0 -695 255 127 255 255
-385 0 -695 255 127 255 255
-380 0 -695 255 127 255 255
-375 0 -695 255 127 255 255
-370 0 -695 255 127 255 255
-365 0 -695 255 127 255 255
-360 0 -695 255 127 255 255
-355 0 -695 255 127 255 255
-350 0 -695 255 127 255 255
-345 0 -695 255 127 255 255
-340 0 -695 255 127 255 255
-335 0 -695 255 127 255 255
-330 0 -695 255 127 255 255
-325 0 -695 255 127 255 255
-320 0 -695 255 127 255 255
-315 0 -695 255 127 255 255
-310 0 -695 255 127 255 255
-305 1.0755e-16 -695 255 127 255 255
-450 0 -690 255 127 255 255
-445 0 -690 255 127 255 255
-440 0 -690 255 127 255 255
-435 0 -690 255 127 255 255
-430 0 -690 255 127 255 255
-425 0 -690 255 127 255 255
-420 0 -690 255 127 255 255
-415 0 -690 255 127 255 255
-410 0 -690 255 127 255 255
-405 0 -690 255 127 255 255
-400 0 -690 255 127 255 255
-395 0 -690 255 127 255 255
-390 0 -690 255 127 255 255
-385 0 -690 255 127 255 255
-380 0 -690 255 127 255 255
-375 0 -690 255 127 255 255
-370 0 -690 255 127 255 255
-365 0 -690 255 127 255 255
-360 0 -690 255 127 255 255
-355 0 -690 255 127 255 255
-350 0 -690 255 127 255 255
-345 0 -690 255 127 255 255
-340 0 -690 255 127 255 255
-335 0 -690 255 127 255 255
-330 0 -690 255 127 255 255
-325 0 -690 255 127 255 255
-320 0 -690 255 127 255 255
-315 0 -690 255 127 255 255
-310 1.19024e-17 -690 255 127 255 255
-305 2.49633e-14 -690 255 127 255 255
-450 0 -685 255 127 255 255
-445 0 -685 255 127 255 255
-440 0 -685 255 127 255 255
-435 0 -685 255 127 255 255
-430 0 -685 255 127 255 255
-425 0 -685 255 127 255 255
-420 0 -685 255 127 255 255
-415 0 -685 255 127 255 255
-410 0 -685 255 127 255 255
-405 0 -685 255 127 255 255
-400 0 -685 255 127 255 255
-395 0 -685 255 127 255 255
-390 0 -685 255 127 255 255
-385 0 -685 255 127 255 255
-380 0 -685 255 127 255 255
-375 0 -685 255 127 255 255
-370 0 -685 255 127 255 255
-365 0 -685 255 127 255 255
-360 0 -685 255 127 255 255
-355 0 -685 255 127 255 255
-350 0 -685 255 127 255 255
-345 0 -685 255 127 255 255
-340 0 -685 255 127 255 255
-335 0 -685 255 127 255 255
-330 0 -685 255 127 255 255
-325 0 -685 255 127 255 255
-320 0 -685 255 127 255 255
-315 4.18372e-19 -685 255 127 255 255
-310 7.38834e-15 -685 255 127 255 255
-305 7.0531e-13 -685 255 127 255 255
-450 0 -680 255 127 255 255
-445 0 -680 255 127 255 255
-440 0 -680 255 127 255 255
-435 0 -680 255 127 255 255
-430 0 -680 255 127 255 255
-425 0 -680 255 127 255 255
-420 0 -680 255 127 255 255
-415 0 -680 255 127 255 255
-410 0 -680 255 127 255 255
-405 0 -680 255 127 255 255
-400 0 -680 255 127 255 255
-395 0 -680 255 127 255 255
-390 0 -680 255 127 255 255
-385 0 -680 255 127 255 255
-380 0 -680 255 127 255 255
-375 0 -680 255 127 255 255
-370 0 -680 255 127 255 255
-365 0 -680 255 127 255 255
-360 0 -680 255 127 255 255
-355 0 -680 255 127 255 255
-350 0 -680 255 127 255 255
-345 0 -680 255 127 255 255
-340 0 -680 255 127 255 255
-335 0 -680 255 127 255 255
-330 0 -680 255 127 255 255
-325 0 -680 255 127 255 255
-320 8.30183e-22 -680 255 127 255 255
-315 1.51624e-15 -680 255 127 255 255
-310 2.9321e-13 -680 255 127 255 255
-305 7.84711e-12 -680 255 127 255 255
-450 0 -675 255 127 255 255
-445 0 -675 255 127 255 255
-440 0 -675 255 127 255 255
-435 0 -675 255 127 255 255
-430 0 -675 255 127 255 255
-425 0 -675 255 127 255 255
-420 0 -675 255 127 255 255
-415 0 -675 255 127 255 255
-410 0 -675 255 127 255 255
-405 0 -675 255 127 255 255
-400 0 -675 255 127 255 255
-395 0 -675 255 127 255 255
-390 0 -675 255 127 255 255
-385 0 -675 255 127 255 255
-380 0 -675 255 127 255 255
-375 0 -675 255 127 255 255
-370 0 -675 255 127 255 255
-365 0 -675 255 127 255 255
-360 0 -675 255 127 255 255
-355 0 -675 255 127 255 255
-350 0 -675 255 127 255 255
-345 0 -675 255 127 255 255
-340 0 -675 255 127 255 255
-335 0 -675 255 127 255 255
-330 0 -675 255 127 255 255
-325 0 -675 255 127 255 255
-320 1.77701e-16 -675 255 127 255 255
-315 9.92023e-14 -675 255 127 255 255
-310 3.87299e-12 -675 255 127 255 255
-305 5.14537e-11 -675 255 127 255 255
-450 0 -670 255 127 255 255
-445 0 -670 255 127 255 255
-440 0 -670 255 127 255 255
-435 0 -670 255 127 255 255
-430 0 -670 255 127 255 255
-425 0 -670 255 127 255 255
-420 0 -670 255 127 255 255
-415 0 -670 255 127 255 255
-410 0 -670 255 127 255 255
-405 0 -670 255 127 255 255
-400 0 -670 255 127 255 255
-395 0 -670 255 127 255 255
-390 0 -670 255 127 255 255
-385 0 -670 255 127 255 255
-380 0 -670 255 127 255 255
-375 0 -670 255 127 255 255
-370 0 -670 255 127 255 255
-365 0 -670 255 127 255 255
-360 0 -670 255 127 255 255
-355 0 -670 255 127 255 255
-350 0 -670 255 127 255 255
-345 0 -670 255 127 255 255
-340 0 -670 255 127 255 255
-335 0 -670 255 127 255 255
-330 0 -670 255 127 255 255
-325 7.77898e-18 -670 255 127 255 255
-320 2.54478e-14 -670 255 127 255 255
-315 1.65887e-12 -670 255 127 255 255
-310 2.81533e-11 -670 255 127 255 255
-305 2.39813e-10 -670 255 127 255 255
-450 0 -665 255 127 255 255
-445 0 -665 255 127 255 255
-440 0 -665 255 127 255 255
-435 0 -665 255 127 255 255
-430 0 -665 255 127 255 255
-425 0 -665 255 127 255 255
-420 0 -665 255 127 255 255
-415 0 -665 255 127 255 255
-410 0 -665 255 127 255 255
-405 0 -665 255 127 255 255
-400 0 -665 255 127 255 255
-395 0 -665 255 127 255 255
-390 0 -665 255 127 255 255
-385 0 -665 255 127 255 255
-380 0 -665 255 127 255 255
-375 0 -665 255 127 255 255
-370 0 -665 255 127 255 255
-365 0 -665 255 127 255 255
-360 0 -665 255 127 255 255
-355 0 -665 255 127 255 255
-350 0 -665 255 127 255 255
-345 0 -665 255 127 255 255
-340 0 -665 255 127 255 255
-335 0 -665 255 127 255 255
-330 3.56014e-20 -665 255 127 255 255
-325 4.3864e-15 -665 255 127 255 255
-320 5.93975e-13 -665 255 127 255 255
-315 1.38259e-11 -665 255 127 255 255
-310 1.40513e-10 -665 255 127 255 255
-305 8.80212e-10 -665 255 127 255 255
-450 0 -660 255 127 255 255
-445 0 -660 255 127 255 255
-440 0 -660 255 127 255 255
-435 0 -660 255 127 255 255
-430 0 -660 255 127 255 255
-425 0 -660 255 127 255 255
-420 0 -660 255 127 255 255
-415 0 -660 255 127 255 255
-410 0 -660 255 127 255 255
-405 0 -660 255 127 255 255
-400 0 -660 255 127 255 255
-395 0 -660 255 127 255 255
-390 0 -660 255 127 255 255
-385 0 -660 255 127 255 255
-380 0 -660 255 127 255 255
-375 0 -660 255 127 255 255
-370 0 -660 255 127 255 255
-365 0 -660 255 127 255 255
-360 0 -660 255 127 255 255
-355 0 -660 255 127 255 255
-350 0 -660 255 127 255 255
-345 0 -660 255 127 255 255
-340 0 -660 255 127 255 255
-335 1.57122e-28 -660 255 127 255 255
-330 4.03312e-16 -660 255 127 255 255
-325 1.67945e-13 -660 255 127 255 255
-320 5.95196e-12 -660 255 127 255 255
-315 7.5421e-11 -660 255 127 255 255
-310 5.41369e-10 -660 255 127 255 255
-305 2.70753e-09 -660 255 127 255 255
-450 0 -655 255 127 255 255
-445 0 -655 255 127 255 255
-440 0 -655 255 127 255 255
-435 0 -655 255 127 255 255
-430 0 -655 255 127 255 255
-425 0 -655 255 127 255 255
-420 0 -655 255 127 255 255
-415 0 -655 255 127 255 255
-410 0 -655 255 127 255 255
-405 0 -655 255 127 255 255
-400 0 -655 255 127 255 255
-395 0 -655 255 127 255 255
-390 0 -655 255 127 255 255
-385 0 -655 255 127 255 255
-380 0 -655 255 127 255 255
-375 0 -655 255 127 255 255
-370 0 -655 255 127 255 255
-365 0 -655 255 127 255 255
-360 0 -655 255 127 255 255
-355 0 -655 255 127 255 255
-350 0 -655 255 127 255 255
-345 0 -655 255 127 255 255
-340 0 -655 255 127 255 255
-335 1.15901e-17 -655 255 127 255 255
-330 3.41571e-14 -655 255 127 255 255
-325 2.17138e-12 -655 255 127 255 255
-320 3.64777e-11 -655 255 127 255 255
-315 3.09223e-10 -655 255 127 255 255
-310 1.7262e-09 -655 255 127 255 255
-305 7.26869e-09 -655 255 127 255 255
-450 0 -650 255 127 255 255
-445 0 -650 255 127 255 255
-440 0 -650 255 127 255 255
-435 0 -650 255 127 255 255
-430 0 -650 255 127 255 255
-425 0 -650 255 127 255 255
-420 0 -650 255 127 255 255
-415 0 -650 255 127 255 255
-410 0 -650 255 127 255 255
-405 0 -650 255 127 255 255
-400 0 -650 255 127 255 255
-395 0 -650 255 127 255 255
-390 0 -650 255 127 255 255
-385 0 -650 255 127 255 255
-380 0 -650 255 127 255 255
-375 0 -650 255 127 255 255
-370 0 -650 255 127 255 255
-365 0 -650 255 127 255 255
-360 0 -650 255 127 255 255
-355 0 -650 255 127 255 255
-350 0 -650 255 127 255 255
-345 0 -650 255 127 255 255
-340 1.68247e-20 -650 255 127 255 255
-335 4.22606e-15 -650 255 127 255 255
-330 6.38009e-13 -650 255 127 255 255
-325 1.55375e-11 -650 255 127 255 255
-320 1.61993e-10 -650 255 127 255 255
-315 1.03203e-09 -650 255 127 255 255
-310 4.76361e-09 -650 255 127 255 255
-305 1.75137e-08 -650 255 127 255 255
-450 0 -645 255 127 255 255
-445 0 -645 255 127 255 255
-440 0 -645 255 127 255 255
-435 0 -645 255 127 255 255
-430 0 -645 255 127 255 255
-425 0 -645 255 127 255 255
-420 0 -645 255 127 255 255
-415 0 -645 255 127 255 255
-410 0 -645 255 127 255 255
-405 0 -645 255 127 255 255
-400 0 -645 255 127 255 255
-395 0 -645 255 127 255 255
-390 0 -645 255 127 255 255
-385 0 -645 255 127 255 255
-380 0 -645 255 127 255 255
-375 0 -645 255 127 255 255
-370 0 -645 255 127 255 255
-365 0 -645 255 127 255 255
-360 0 -645 255 127 255 255
-355 0 -645 255 127 255 255
-350 0 -645 255 127 255 255
-345 0 -645 255 127 255 255
-340 2.24244e-16 -645 255 127 255 255
-335 1.39189e-13 -645 255 127 255 255
-330 5.64218e-12 -645 255 127 255 255
-325 7.65458e-11 -645 255 127 255 255
-320 5.72935e-10 -645 255 127 255 255
-315 2.94885e-09 -645 255 127 255 255
-310 1.17291e-08 -645 255 127 255 255
-305 3.86439e-08 -645 255 127 255 255
-450 0 -640 255 127 255 255
-445 0 -640 255 127 255 255
-440 0 -640 255 127 255 255
-435 0 -640 255 127 255 255
-430 0 -640 255 127 255 255
-425 0 -640 255 127 255 255
-420 0 -640 255 127 255 255
-415 0 -640 255 127 255 255
-410 0 -640 255 127 255 255
-405 0 -640 255 127 255 255
-400 0 -640 255 127 255 255
-395 0 -640 255 127 255 255
-390 0 -640 255 127 255 255
-385 0 -640 255 127 255 255
-380 0 -640 255 127 255 255
-375 0 -640 255 127 255 255
-370 0 -640 255 127 255 255
-365 0 -640 255 127 255 255
-360 0 -640 255 127 255 255
-355 0 -640 255 127 255 255
-350 0 -640 255 127 255 255
-345 1.96843e-18 -640 255 127 255 255
-340 1.95644e-14 -640 255 127 255 255
-335 1.66374e-12 -640 255 127 255 255
-330 3.18837e-11 -640 255 127 255 255
-325 2.91543e-10 -640 255 127 255 255
-320 1.71034e-09 -640 255 127 255 255
-315 7.46113e-09 -640 255 127 255 255
-310 2.6332e-08 -640 255 127 255 255
-305 7.92544e-08 -640 255 127 255 255
-450 0 -635 255 127 255 255
-445 0 -635 255 127 255 255
-440 0 -635 255 127 255 255
-435 0 -635 255 127 255 255
-430 0 -635 255 127 255 255
-425 0 -635 255 127 255 255
-420 0 -635 255 127 255 255
-415 0 -635 255 127 255 255
-410 0 -635 255 127 255 255
-405 0 -635 255 127 255 255
-400 0 -635 255 127 255 255
-395 0 -635 255 127 255 255
-390 0 -635 255 127 255 255
-385 0 -635 255 127 255 255
-380 0 -635 255 127 255 255
-375 0 -635 255 127 255 255
-370 0 -635 255 127 255 255
-365 0 -635 255 127 255 255
-360 0 -635 255 127 255 255
-355 0 -635 255 127 255 255
-350 1.42395e-23 -635 255 127 255 255
-345 1.33637e-15 -635 255 127 255 255
-340 3.68898e-13 -635 255 127 255 255
-335 1.1329e-11 -635 255 127 255 255
-330 1.33646e-10 -635 255 127 255 255
-325 9.19794e-10 -635 255 127 255 255
-320 4.47745e-09 -635 255 127 255 255
-315 1.71187e-08 -635 255 127 255 255
-310 5.47699e-08 -635 255 127 255 255
-305 1.52811e-07 -635 255 127 255 255
-450 0 -630 255 127 255 255
-445 0 -630 255 127 255 255
-440 0 -630 255 127 255 255
-435 0 -630 255 127 255 255
-430 0 -630 255 127 255 255
-425 0 -630 255 127 255 255
-420 0 -630 255 127 255 255
-415 0 -630 255 127 255 255
-410 0 -630 255 127 255 255
-405 0 -630 255 127 255 255
-400 0 -630 255 127 255 255
-395 0 -630 255 127 255 255
-390 0 -630 255 127 255 255
-385 0 -630 255 127 255 255
-380 0 -630 255 127 255 255
-375 0 -630 255 127 255 255
-370 0 -630 255 127 255 255
-365 0 -630 255 127 255 255
-360 0 -630 255 127 255 255
-355 0 -630 255 127 255 255
-350 2.19901e-17 -630 255 127 255 255
-345 5.38648e-14 -630 255 127 255 255
-340 3.27041e-12 -630 255 127 255 255
-335 5.38852e-11 -630 255 127 255 255
-330 4.52395e-10 -630 255 127 255 255
-325 2.51283e-09 -630 255 127 255 255
-320 1.05554e-08 -630 255 127 255 255
-315 3.62408e-08 -630 255 127 255 255
-310 1.06829e-07 -630 255 127 255 255
-305 2.79462e-07 -630 255 127 255 255
-450 0 -625 255 127 255 255
-445 0 -625 255 127 255 255
-440 0 -625 255 127 255 255
-435 0 -625 255 127 255 255
-430 0 -625 255 127 255 255
-425 0 -625 255 127 255 255
-420 0 -625 255 127 255 255
-415 0 -625 255 127 255 255
-410 0 -625 255 127 255 255
-405 0 -625 255 127 255 255
-400 0 -625 255 127 255 255
-395 0 -625 255 127 255 255
-390 0 -625 255 127 255 255
-385 0 -625 255 127 255 255
-380 0 -625 255 127 255 255
-375 0 -625 255 127 255 255
-370 0 -625 255 127 255 255
-365 0 -625 255 127 255 255
-360 0 -625 255 127 255 255
-355 4.81278e-21 -625 255 127 255 255
-350 3.99878e-15 -625 255 127 255 255
-345 7.09852e-13 -625 255 127 255 255
-340 1.84676e-11 -625 255 127 255 255
-335 1.99782e-10 -625 255 127 255 255
-330 1.30415e-09 -625 255 127 255 255
-325 6.12729e-09 -625 255 127 255 255
-320 2.28423e-08 -625 255 127 255 255
-315 7.17224e-08 -625 255 127 255 255
-310 1.97249e-07 -625 255 127 255 255
-305 4.8819e-07 -625 255 127 255 255
-450 0 -620 255 127 255 255
-445 0 -620 255 127 255 255
-440 0 -620 255 127 255 255
-435 0 -620 255 127 255 255
-430 0 -620 255 127 255 255
-425 0 -620 255 127 255 255
-420 0 -620 255 127 255 255
-415 0 -620 255 127 255 255
-410 0 -620 255 127 255 255
-405 0 -620 255 127 255 255
-400 0 -620 255 127 255 255
-395 0 -620 255 127 255 255
-390 0 -620 255 127 255 255
-385 0 -620 255 127 255 255
-380 0 -620 255 127 255 255
-375 0 -620 255 127 255 255
-370 0 -620 255 127 255 255
-365 0 -620 255 127 255 255
-360 0 -620 255 127 255 255
-355 8.09497e-17 -620 255 127 255 255
-350 1.01389e-13 -620 255 127 255 255
-345 5.11088e-12 -620 255 127 255 255
-340 7.72124e-11 -620 255 127 255 255
-335 6.16687e-10 -620 255 127 255 255
-330 3.3169e-09 -620 255 127 255 255
-325 1.36255e-08 -620 255 127 255 255
-320 4.60289e-08 -620 255 127 255 255
-315 1.34033e-07 -620 255 127 255 255
-310 3.47329e-07 -620 255 127 255 255
-305 8.19272e-07 -620 255 127 255 255
-450 0 -615 255 127 255 255
-445 0 -615 255 127 255 255
-440 0 -615 255 127 255 255
-435 0 -615 255 127 255 255
-430 0 -615 255 127 255 255
-425 0 -615 255 127 255 255
-420 0 -615 255 127 255 255
-415 0 -615 255 127 255 255
-410 0 -615 255 127 255 255
-405 0 -615 255 127 255 255
-400 0 -615 255 127 255 255
-395 0 -615 255 127 255 255
-390 0 -615 255 127 255 255
-385 0 -615 255 127 255 255
-380 0 -615 255 127 255 255
-375 0 -615 255 127 255 255
-370 0 -615 255 127 255 255
-365 0 -615 255 127 255 255
-360 4.26774e-20 -615 255 127 255 255
-355 7.34295e-15 -615 255 127 255 255
-350 1.05255e-12 -615 255 127 255 255
-345 2.51709e-11 -615 255 127 255 255
-340 2.6041e-10 -615 255 127 255 255
-335 1.65394e-09 -615 255 127 255 255
-330 7.62948e-09 -615 255 127 255 255
-325 2.80755e-08 -615 255 127 255 255
-320 8.73148e-08 -615 255 127 255 255
-315 2.38406e-07 -615 255 127 255 255
-310 5.86784e-07 -615 255 127 255 255
-305 1.327e-06 -615 255 127 255 255
-450 0 -610 255 127 255 255
-445 0 -610 255 127 255 255
-440 0 -610 255 127 255 255
-435 0 -610 255 127 255 255
-430 0 -610 255 127 255 255
-425 0 -610 255 127 255 255
-420 0 -610 255 127 255 255
-415 0 -610 255 127 255 255
-410 0 -610 255 127 255 255
-405 0 -610 255 127 255 255
-400 0 -610 255 127 255 255
-395 0 -610 255 127 255 255
-390 0 -610 255 127 255 255
-385 0 -610 255 127 255 255
-380 0 -610 255 127 255 255
-375 0 -610 255 127 255 255
-370 0 -610 255 127 255 255
-365 0 -610 255 127 255 255
-360 1.43812e-16 -610 255 127 255 255
-355 1.39891e-13 -610 255 127 255 255
-350 6.54614e-12 -610 255 127 255 255
-345 9.54797e-11 -610 255 127 255 255
-340 7.47361e-10 -610 255 127 255 255
-335 3.96838e-09 -610 255 127 255 255
-330 1.61598e-08 -610 255 127 255 255
-325 5.42525e-08 -610 255 127 255 255
-320 1.57269e-07 -610 255 127 255 255
-315 4.06192e-07 -610 255 127 255 255
-310 9.55749e-07 -610 255 127 255 255
-305 2.08254e-06 -610 255 127 255 255
-450 0 -605 255 127 255 255
-445 0 -605 255 127 255 255
-440 0 -605 255 127 255 255
-435 0 -605 255 127 255 255
-430 0 -605 255 127 255 255
-425 0 -605 255 127 255 255
-420 0 -605 255 127 255 255
-415 0 -605 255 127 255 255
-410 0 -605 255 127 255 255
-405 0 -605 255 127 255 255
-400 0 -605 255 127 255 255
-395 0 -605 255 127 255 255
-390 0 -605 255 127 255 255
-385 0 -605 255 127 255 255
-380 0 -605 255 127 255 255
-375 0 -605 255 127 255 255
-370 0 -605 255 127 255 255
-365 7.0483e-20 -605 255 127 255 255
-360 9.03822e-15 -605 255 127 255 255
-355 1.24078e-12 -605 255 127 255 255
-350 2.91772e-11 -605 255 127 255 255
-345 2.9926e-10 -605 255 127 255 255
-340 1.89127e-09 -605 255 127 255 255
-335 8.69785e-09 -605 255 127 255 255
-330 3.19465e-08 -605 255 127 255 255
-325 9.92406e-08 -605 255 127 255 255
-320 2.70797e-07 -605 255 127 255 255
-315 6.66337e-07 -605 255 127 255 255
-310 1.50695e-06 -605 255 127 255 255
-305 3.17691e-06 -605 255 127 255 255
3 0 1 30
3 1 31 30
3 1 2 31
3 2 32 31
3 2 3 32
3 3 33 32
3 3 4 33
3 4 34 33
3 4 5 34
3 5 35 34
3 5 6 35
3 6 36 35
3 6 7 36
3 7 37 36
3 7 8 37
3 8 38 37
3 8 9 38
3 9 39 38
3 9 10 39
3 10 40 39
3 10 11 40
3 11 41 40
3 11 12 41
3 12 42 41
3 12 13 42
3 13 43 42
3 13 14 43
3 14 44 43
3 14 15 44
3 15 45 44
3 15 16 45
3 16 46 45
3 16 17 46
3 17 47 46
3 17 18 47
3 18 48 47
3 18 19 48
3 19 49 48
3 19 20 49
3 20 50 49
3 20 21 50
3 21 51 50
3 21 22 51
3 22 52 51
3 22 23 52
3 23 53 52
3 23 24 53
3 24 54 53
3 24 25 54
3 25 55 54
3 25 26 55
3 26 56 55
3 26 27 56
3 27 57 56
3 27 28 57
3 28 58 57
3 28 29 58
3 29 59 58
3 30 31 60
3 31 61 60
3 31 32 61
3 32 62 61
3 32 33 62
3 33 63 62
3 33 34 63
3 34 64 63
3 34 35 64
3 35 65 64
3 35 36 65
3 36 66 65
3 36 37 66
3 37 67 66
3 37 38 67
3 38 68 67
3 38 39 68
3 39 69 68
3 39 40 69
3 40 70 69
3 40 41 70
3 41 71 70
3 41 42 71
3 42 72 71
3 42 43 72
3 43 73 72
3 43 44 73
3 44 74 73
3 44 45 74
3 45 75 74
3 45 46 75
3 46 76 75
3 46 47 76
3 47 77 76
3 47 48 77
3 48 78 77
3 48 49 78
3 49 79 78
3 49 50 79
3 50 80 79
3 50 51 80
3 51 81 80
3 51 52 81
3 52 82 81
3 52 53 82
3 53 83 82
3 53 54 83
3 54 84 83
3 54 55 84
3 55 85 84
3 55 56 85
3 56 86 85
3 56 57 86
3 57 87 86
3 57 58 87
3 58 88 87
3 58 59 88
3 59 89 88
3 60 61 90
3 61 91 90
3 61 62 91
3 62 92 91
3 62 63 92
3 63 93 92
3 63 64 93
3 64 94 93
3 64 65 94
3 65 95 94
3 65 66 95
3 66 96 95
3 66 67 96
3 67 97 96
3 67 68 97
3 68 98 97
3 68 69 98
3 69 99 98
3 69 70 99
3 70 100 99
3 70 71 100
3 71 101 100
3 71 72 101
3 72 102 101
3 72 73 102
3 73 103 102
3 73 74 103
3 74 104 103
3 74 75 104
3 75 105 104
3 75 76 105
3 76 106 105
3 76 77 106
3 77 107 106
3 77 78 107
3 78 108 107
3 78 79 108
3 79 109 108
3 79 80 109
3 80 110 109
3 80 81 110
3 81 111 110
3 81 82 111
3 82 112 111
3 82 83 112
3 83 113 112
3 83 84 113
3 84 114 113
3 84 85 114
3 85 115 114
3 85 86 115
3 86 116 115
3 86 87 116
3 87 117 116
3 87 88 117
3 88 118 117
3 88 89 118
3 89 119 118
3 90 91 120
3 91 121 120
3 91 92 121
3 92 122 121
3 92 93 122
3 93 123 122
3 93 94 123
3 94 124 123
3 94 95 124
3 95 125 124
3 95 96 125
3 96 126 125
3 96 97 126
3 97 127 126
3 97 98 127
3 98 128 127
3 98 99 128
3 99 129 128
3 99 100 129
3 100 130 129
3 100 101 130
3 101 131 130
3 101 102 131
3 102 132 131
3 102 103 132
3 103 133 132
3 103 104 133
3 104 134 133
3 104 105 134
3 105 135 134
3 105 106 135
3 106 136 135
3 106 107 136
3 107 137 136
3 107 108 137
3 108 138 137
3 108 109 138
3 109 139 138
3 109 110 139
3 110 140 139
3 110 111 140
3 111 141 140
3 111 112 141
3 112 142 141
3 112 113 142
3 113 143 142
3 113 114 143
3 114 144 143
3 114 115 144
3 115 145 144
3 115 116 145
3 116 146 145
3 116 117 146
3 117 147 146
3 117 118 147
3 118 148 147
3 118 119 148
3 119 149 148
3 120 121 150
3 121 151 150
3 121 122 151
3 122 152 151
3 122 123 152
3 123 153 152
3 123 124 153
3 124 154 153
3 124 125 154
3 125 155 154
3 125 126 155
3 126 156 155
3 126 127 156
3 127 157 156
3 127 128 157
3 128 158 157
3 128 129 158
3 129 159 158
3 129 130 159
3 130 160 159
3 130 131 160
3 131 161 160
3 131 132 161
3 132 162 161
3 132 133 162
3 133 163 162
3 133 134 163
3 134 164 163
3 134 135 164
3 135 165 164
3 135 136 165
3 136 166 165
3 136 137 166
3 137 167 166
3 137 138 167
3 138 168 167
3 138 139 168
3 139 169 168
3 139 140 169
3 140 170 169
3 140 141 170
3 141 171 170
3 141 142 171
3 142 172 171
3 142 143 172
3 143 173 172
3 143 144 173
3 144 174 173
3 144 145 174
3 145 175 174
3 145 146 175
3 146 176 175
3 146 147 176
3 147 177 176
3 147 148 177
3 148 178 177
3 148 149 178
3 149 179 178
3 150 151 180
3 151 181 180
3 151 152 181
3 152 182 181
3 152 153 182
3 153 183 182
3 153 154 183
3 154 184 183
3 154 155 184
3 155 185 184
3 155 156 185
3 156 186 185
3 156 157 186
3 157 187 186
3 157 158 187
3 158 188 187
3 158 159 188
3 159 189 188
3 159 160 189
3 160 190 189
3 160 161 190
3 161 191 190
3 161 162 191
3 162 192 191
3 162 163 192
3 163 193 192
3 163 164 193
3 164 194 193
3 164 165 194
3 165 195 194
3 165 166 195
3 166 196 195
3 166 167 196
3 167 197 196
3 167 168 197
3 168 198 197
3 168 169 198
3 169 199 198
3 169 170 199
3 170 200 199
3 170 171 200
3 171 201 200
3 171 172 201
3 172 202 201
3 172 173 202
3 173 203 202
3 173 174 203
3 174 204 203
3 174 175 204
3 175 205 204
3 175 176 205
3 176 206 205
3 176 177 206
3 177 207 206
3 177 178 207
3 178 208 207
3 178 179 208
3 179 209 208
3 180 181 210
3 181 211 210
3 181 182 211
3 182 212 211
3 182 183 212
3 183 213 212
3 183 184 213
3 184 214 213
3 184 185 214
3 185 215 214
3 185 186 215
3 186 216 215
3 186 187 216
3 187 217 216
3 187 188 217
3 188 218 217
3 188 189 218
3 189 219 218
3 189 190 219
3 190 220 219
3 190 191 220
3 191 221 220
3 191 192 221
3 192 222 221
3 192 193 222
3 193 223 222
3 193 194 223
3 194 224 223
3 194 195 224
3 195 225 224
3 195 196 225
3 196 226 225
3 196 197 226
3 197 227 226
3 197 198 227
3 198 228 227
3 198 199 228
3 199 229 228
3 199 200 229
3 200 230 229
3 200 201 230
3 201 231 230
3 201 202 231
3 202 232 231
3 202 203 232
3 203 233 232
3 203 204 233
3 204 234 233
3 204 205 234
3 205 235 234
3 205 206 235
3 206 236 235
3 206 207 236
3 207 237 236
3 207 208 237
3 208 238 237
3 208 209 238
3 209 239 238
3 210 211 240
3 211 241 240
3 211 212 241
3 212 242 241
3 212 213 242
3 213 243 242
3 213 214 243
3 214 244 243
3 214 215 244
3 215 245 244
3 215 216 245
3 216 246 245
3 216 217 246
3 217 247 246
3 217 218 247
3 218 248 247
3 218 219 248
3 219 249 248
3 219 220 249
3 220 250 249
3 220 221 250
3 221 251 250
3 221 222 251
3 222 252 251
3 222 223 252
3 223 253 252
3 223 224 253
3 224 254 253
3 224 225 254
3 225 255 254
3 225 226 255
3 226 256 255
3 226 227 256
3 227 257 256
3 227 228 257
3 228 258 257
3 228 229 258
3 229 259 258
3 229 230 259
3 230 260 259
3 230 231 260
3 231 261 260
3 231 232 261
3 232 262 261
3 232 233 262
3 233 263 262
3 233 234 263
3 234 264 263
3 234 235 264
3 235 265 264
3 235 236 265
3 236 266 265
3 236 237 266
3 237 267 266
3 237 238 267
3 238 268 267
3 238 239 268
3 239 269 268
3 240 241 270
3 241 271 270
3 241 242 271
3 242 272 271
3 242 243 272
3 243 273 272
3 243 244 273
3 244 274 273
3 244 245 274
3 245 275 274
3 245 246 275
3 246 276 275
3 246 247 276
3 247 277 276
3 247 248 277
3 248 278 277
3 248 249 278
3 249 279 278
3 249 250 279
3 250 280 279
3 250 251 280
3 251 281 280
3 251 252 281
3 252 282 281
3 252 253 282
3 253 283 282
3 253 254 283
3 254 284 283
3 254 255 284
3 255 285 284
3 255 256 285
3 256 286 285
3 256 257 286
3 257 287 286
3 257 258 287
3 258 288 287
3 258 259 288
3 259 289 288
3 259 260 289
3 260 290 289
3 260 261 290
3 261 291 290
3 261 262 291
3 262 292 291
3 262 263 292
3 263 293 292
3 263 264 293
3 264 294 293
3 264 265 294
3 265 295 294
3 265 266 295
3 266 296 295
3 266 267 296
3 267 297 296
3 267 268 297
3 268 298 297
3 268 269 298
3 269 299 298
3 270 271 300
3 271 301 300
3 271 272 301
3 272 302 301
3 272 273 302
3 273 303 302
3 273 274 303
3 274 304 303
3 274 275 304
3 275 305 304
3 275 276 305
3 276 306 305
3 276 277 306
3 277 307 306
3 277 278 307
3 278 308 307
3 278 279 308
3 279 309 308
3 279 280 309
3 280 310 309
3 280 281 310
3 281 311 310
3 281 282 311
3 282 312 311
3 282 283 312
3 283 313 312
3 283 284 313
3 284 314 313
3 284 285 314
3 285 315 314
3 285 286 315
3 286 316 315
3 286 287 316
3 287 317 316
3 287 288 317
3 288 318 317
3 288 289 318
3 289 319 318
3 289 290 319
3 290 320 319
3 290 291 320
3 291 321 320
3 291 292 321
3 292 322 321
3 292 293 322
3 293 323 322
3 293 294 323
3 294 324 323
3 294 295 324
3 295 325 324
3 295 296 325
3 296 326 325
3 296 297 326
3 297 327 326
3 297 298 327
3 298 328 327
3 298 299 328
3 299 329 328
3 300 301 330
3 301 331 330
3 301 302 331
3 302 332 331
3 302 303 332
3 303 333 332
3 303 304 333
3 304 334 333
3 304 305 334
3 305 335 334
3 305 306 335
3 306 336 335
3 306 307 336
3 307 337 336
3 307 308 337
3 308 338 337
3 308 309 338
3 309 339 338
3 309 310 339
3 310 340 339
3 310 311 340
3 311 341 340
3 311 312 341
3 312 342 341
3 312 313 342
3 313 343 342
3 313 314 343
3 314 344 343
3 314 315 344
3 315 345 344
3 315 316 345
3 316 346 345
3 316 317 346
3 317 347 346
3 317 318 347
3 318 348 347
3 318 319 348
3 319 349 348
3 319 320 349
3 320 350 349
3 320 321 350
3 321 351 350
3 321 322 351
3 322 352 351
3 322 323 352
3 323 353 352
3 323 324 353
3 324 354 353
3 324 325 354
3 325 355 354
3 325 326 355
3 326 356 355
3 326 327 356
3 327 357 356
3 327 328 357
3 328 358 357
3 328 329 358
3 329 359 358
3 330 331 360
3 331 361 360
3 331 332 361
3 332 362 361
3 332 333 362
3 333 363 362
3 333 334 363
3 334 364 363
3 334 335 364
3 335 365 364
3 335 336 365
3 336 366 365
3 336 337 366
3 337 367 366
3 337 338 367
3 338 368 367
3 338 339 368
3 339 369 368
3 339 340 369
3 340 370 369
3 340 341 370
3 341 371 370
3 341 342 371
3 342 372 371
3 342 343 372
3 343 373 372
3 343 344 373
3 344 374 373
3 344 345 374
3 345 375 374
3 345 346 375
3 346 376 375
3 346 347 376
3 347 377 376
3 347 348 377
3 348 378 377
3 348 349 378
3 349 379 378
3 349 350 379
3 350 380 379
3 350 351 380
3 351 381 380
3 351 352 381
3 352 382 381
3 352 353 382
3 353 383 382
3 353 354 383
3 354 384 383
3 354 355 384
3 355 385 384
3 355 356 385
3 356 386 385
3 356 357 386
3 357 387 386
3 357 358 387
3 358 388 387
3 358 359 388
3 359 389 388
3 360 361 390
3 361 391 390
3 361 362 391
3 362 392 391
3 362 363 392
3 363 393 392
3 363 364 393
3 364 394 393
3 364 365 394
3 365 395 394
3 365 366 395
3 366 396 395
3 366 367 396
3 367 397 396
3 367 368 397
3 368 398 397
3 368 369 398
3 369 399 398
3 369 370 399
3 370 400 399
3 370 371 400
3 371 401 400
3 371 372 401
3 372 402 401
3 372 373 402
3 373 403 402
3 373 374 403
3 374 404 403
3 374 375 404
3 375 405 404
3 375 376 405
3 376 406 405
3 376 377 406
3 377 407 406
3 377 378 407
3 378 408 407
3 378 379 408
3 379 409 408
3 379 380 409
3 380 410 409
3 380 381 410
3 381 411 410
3 381 382 411
3 382 412 411
3 382 383 412
3 383 413 412
3 383 384 413
3 384 414 413
3 384 385 414
3 385 415 414
3 385 386 415
3 386 416 415
3 386 387 416
3 387 417 416
3 387 388 417
3 388 418 417
3 388 389 418
3 389 419 418
3 390 391 420
3 391 421 420
3 391 392 421
3 392 422 421
3 392 393 422
3 393 423 422
3 393 394 423
3 394 424 423
3 394 395 424
3 395 425 424
3 395 396 425
3 396 426 425
3 396 397 426
3 397 427 426
3 397 398 427
3 398 428 427
3 398 399 428
3 399 429 428
3 399 400 429
3 400 430 429
3 400 401 430
3 401 431 430
3 401 402 431
3 402 432 431
3 402 403 432
3 403 433 432
3 403 404 433
3 404 434 433
3 404 405 434
3 405 435 434
3 405 406 435
3 406 436 435
3 406 407 436
3 407 437 436
3 407 408 437
3 408 438 437
3 408 409 438
3 409 439 438
3 409 410 439
3 410 440 439
3 410 411 440
3 411 441 440
3 411 412 441
3 412 442 441
3 412 413 442
3 413 443 442
3 413 414 443
3 414 444 443
3 414 415 444
3 415 445 444
3 415 416 445
3 416 446 445
3 416 417 446
3 417 447 446
3 417 418 447
3 418 448 447
3 418 419 448
3 419 449 448
3 420 421 450
3 421 451 450
3 421 422 451
3 422 452 451
3 422 423 452
3 423 453 452
3 423 424 453
3 424 454 453
3 424 425 454
3 425 455 454
3 425 426 455
3 426 456 455
3 426 427 456
3 427 457 456
3 427 428 457
3 428 458 457
3 428 429 458
3 429 459 458
3 429 430 459
3 430 460 459
3 430 431 460
3 431 461 460
3 431 432 461
3 432 462 461
3 432 433 462
3 433 463 462
3 433 434 463
3 434 464 463
3 434 435 464
3 435 465 464
3 435 436 465
3 436 466 465
3 436 437 466
3 437 467 466
3 437 438 467
3 438 468 467
3 438 439 468
3 439 469 468
3 439 440 469
3 440 470 469
3 440 441 470
3 441 471 470
3 441 442 471
3 442 472 471
3 442 443 472
3 443 473 472
3 443 444 473
3 444 474 473
3 444 445 474
3 445 475 474
3 445 446 475
3 446 476 475
3 446 447 476
3 447 477 476
3 447 448 477
3 448 478 477
3 448 449 478
3 449 479 478
3 450 451 480
3 451 481 480
3 451 452 481
3 452 482 481
3 452 453 482
3 453 483 482
3 453 454 483
3 454 484 483
3 454 455 484
3 455 485 484
3 455 456 485
3 456 486 485
3 456 457 486
3 457 487 486
3 457 458 487
3 458 488 487
3 458 459 488
3 459 489 488
3 459 460 489
3 460 490 489
3 460 461 490
3 461 491 490
3 461 462 491
3 462 492 491
3 462 463 492
3 463 493 492
3 463 464 493
3 464 494 493
3 464 465 494
3 465 495 494
3 465 466 495
3 466 496 495
3 466 467 496
3 467 497 496
3 467 468 497
3 468 498 497
3 468 469 498
3 469 499 498
3 469 470 499
3 470 500 499
3 470 471 500
3 471 501 500
3 471 472 501
3 472 502 501
3 472 473 502
3 473 503 502
3 473 474 503
3 474 504 503
3 474 475 504
3 475 505 504
3 475 476 505
3 476 506 505
3 476 477 506
3 477 507 506
3 477 478 507
3 478 508 507
3 478 479 508
3 479 509 508
3 480 481 510
3 481 511 510
3 481 482 511
3 482 512 511
3 482 483 512
3 483 513 512
3 483 484 513
3 484 514 513
3 484 485 514
3 485 515 514
3 485 486 515
3 486 516 515
3 486 487 516
3 487 517 516
3 487 488 517
3 488 518 517
3 488 489 518
3 489 519 518
3 489 490 519
3 490 520 519
3 490 491 520
3 491 521 520
3 491 492 521
3 492 522 521
3 492 493 522
3 493 523 522
3 493 494 523
3 494 524 523
3 494 495 524
3 495 525 524
3 495 496 525
3 496 526 525
3 496 497 526
3 497 527 526
3 497 498 527
3 498 528 527
3 498 499 528
3 499 529 528
3 499 500 529
3 500 530 529
3 500 501 530
3 501 531 530
3 501 502 531
3 502 532 531
3 502 503 532
3 503 533 532
3 503 504 533
3 504 534 533
3 504 505 534
3 505 535 534
3 505 506 535
3 506 536 535
3 506 507 536
3 507 537 536
3 507 508 537
3 508 538 537
3 508 509 538
3 509 539 538
3 510 511 540
3 511 541 540
3 511 512 541
3 512 542 541
3 512 513 542
3 513 543 542
3 513 514 543
3 514 544 543
3 514 515 544
3 515 545 544
3 515 516 545
3 516 546 545
3 516 517 546
3 517 547 546
3 517 518 547
3 518 548 547
3 518 519 548
3 519 549 548
3 519 520 549
3 520 550 549
3 520 521 550
3 521 551 550
3 521 522 551
3 522 552 551
3 522 523 552
3 523 553 552
3 523 524 553
3 524 554 553
3 524 525 554
3 525 555 554
3 525 526 555
3 526 556 555
3 526 527 556
3 527 557 556
3 527 528 557
3 528 558 557
3 528 529 558
3 529 559 558
3 529 530 559
3 530 560 559
3 530 531 560
3 531 561 560
3 531 532 561
3 532 562 561
3 532 533 562
3 533 563 562
3 533 534 563
3 534 564 563
3 534 535 564
3 535 565 564
3 535 536 565
3 536 566 565
3 536 537 566
3 537 567 566
3 537 538 567
3 538 568 567
3 538 539 568
3 539 569 568
3 540 541 570
3 541 571 570
3 541 542 571
3 542 572 571
3 542 543 572
3 543 573 572
3 543 544 573
3 544 574 573
3 544 545 574
3 545 575 574
3 545 546 575
3 546 576 575
3 546 547 576
3 547 577 576
3 547 548 577
3 548 578 577
3 548 549 578
3 549 579 578
3 549 550 579
3 550 580 579
3 550 551 580
3 551 581 580
3 551 552 581
3 552 582 581
3 552 553 582
3 553 583 582
3 553 554 583
3 554 584 583
3 554 555 584
3 555 585 584
3 555 556 585
3 556 586 585
3 556 557 586
3 557 587 586
3 557 558 587
3 558 588 587
3 558 559 588
3 559 589 588
3 559 560 589
3 560 590 589
3 560 561 590
3 561 591 590
3 561 562 591
3 562 592 591
3 562 563 592
3 563 593 592
3 563 564 593
3 564 594 593
3 564 565 594
3 565 595 594
3 565 566 595
3 566 596 595
3 566 567 596
3 567 597 596
3 567 568 597
3 568 598 597
3 568 569 598
3 569 599 598
3 570 571 600
3 571 601 600
3 571 572 601
3 572 602 601
3 572 573 602
3 573 603 602
3 573 574 603
3 574 604 603
3 574 575 604
3 575 605 604
3 575 576 605
3 576 606 605
3 576 577 606
3 577 607 606
3 577 578 607
3 578 608 607
3 578 579 608
3 579 609 608
3 579 580 609
3 580 610 609
3 580 581 610
3 581 611 610
3 581 582 611
3 582 612 611
3 582 583 612
3 583 613 612
3 583 584 613
3 584 614 613
3 584 585 614
3 585 615 614
3 585 586 615
3 586 616 615
3 586 587 616
3 587 617 616
3 587 588 617
3 588 618 617
3 588 589 618
3 589 619 618
3 589 590 619
3 590 620 619
3 590 591 620
3 591 621 620
3 591 592 621
3 592 622 621
3 592 593 622
3 593 623 622
3 593 594 623
3 594 624 623
3 594 595 624
3 595 625 624
3 595 596 625
3 596 626 625
3 596 597 626
3 597 627 626
3 597 598 627
3 598 628 627
3 598 599 628
3 599 629 628
3 600 601 630
3 601 631 630
3 601 602 631
3 602 632 631
3 602 603 632
3 603 633 632
3 603 604 633
3 604 634 633
3 604 605 634
3 605 635 634
3 605 606 635
3 606 636 635
3 606 607 636
3 607 637 636
3 607 608 637
3 608 638 637
3 608 609 638
3 609 639 638
3 609 610 639
3 610 640 639
3 610 611 640
3 611 641 640
3 611 612 641
3 612 642 641
3 612 613 642
3 613 643 642
3 613 614 643
3 614 644 643
3 614 615 644
3 615 645 644
3 615 616 645
3 616 646 645
3 616 617 646
3 617 647 646
3 617 618 647
3 618 648 647
3 618 619 648
3 619 649 648
3 619 620 649
3 620 650 649
3 620 621 650
3 621 651 650
3 621 622 651
3 622 652 651
3 622 623 652
3 623 653 652
3 623 624 653
3 624 654 653
3 624 625 654
3 625 655 654
3 625 626 655
3 626 656 655
3 626 627 656
3 627 657 656
3 627 628 657
3 628 658 657
3 628 629 658
3 629 659 658
3 630 631 660
3 631 661 660
3 631 632 661
3 632 662 661
3 632 633 662
3 633 663 662
3 633 634 663
3 634 664 663
3 634 635 664
3 635 665 664
3 635 636 665
3 636 666 665
3 636 637 666
3 637 667 666
3 637 638 667
3 638 668 667
3 638 639 668
3 639 669 668
3 639 640 669
3 640 670 669
3 640 641 670
3 641 671 670
3 641 642 671
3 642 672 671
3 642 643 672
3 643 673 672
3 643 644 673
3 644 674 673
3 644 645 674
3 645 675 674
3 645 646 675
3 646 676 675
3 646 647 676
3 647 677 676
3 647 648 677
3 648 678 677
3 648 649 678
3 649 679 678
3 649 650 679
3 650 680 679
3 650 651 680
3 651 681 680
3 651 652 681
3 652 682 681
3 652 653 682
3 653 683 682
3 653 654 683
3 654 684 683
3 654 655 684
3 655 685 684
3 655 656 685
3 656 686 685
3 656 657 686
3 657 687 686
3 657 658 687
3 658 688 687
3 658 659 688
3 659 689 688
3 660 661 690
3 661 691 690
3 661 662 691
3 662 692 691
3 662 663 692
3 663 693 692
3 663 664 693
3 664 694 693
3 664 665 694
3 665 695 694
3 665 666 695
3 666 696 695
3 666 667 696
3 667 697 696
3 667 668 697
3 668 698 697
3 668 669 698
3 669 699 698
3 669 670 699
3 670 700 699
3 670 671 700
3 671 701 700
3 671 672 701
3 672 702 701
3 672 673 702
3 673 703 702
3 673 674 703
3 674 704 703
3 674 675 704
3 675 705 704
3 675 676 705
3 676 706 705
3 676 677 706
3 677 707 706
3 677 678 707
3 678 708 707
3 678 679 708
3 679 709 708
3 679 680 709
3 680 710 709
3 680 681 710
3 681 711 710
3 681 682 711
3 682 712 711
3 682 683 712
3 683 713 712
3 683 684 713
3 684 714 713
3 684 685 714
3 685 715 714
3 685 686 715
3 686 716 715
3 686 687 716
3 687 717 716
3 687 688 717
3 688 718 717
3 688 689 718
3 689 719 718
3 690 691 720
3 691 721 720
3 691 692 721
3 692 722 721
3 692 693 722
3 693 723 722
3 693 694 723
3 694 724 723
3 694 695 724
3 695 725 724
3 695 696 725
3 696 726 725
3 696 697 726
3 697 727 726
3 697 698 727
3 698 728 727
3 698 699 728
3 699 729 728
3 699 700 729
3 700 730 729
3 700 701 730
3 701 731 730
3 701 702 731
3 702 732 731
3 702 703 732
3 703 733 732
3 703 704 733
3 704 734 733
3 704 705 734
3 705 735 734
3 705 706 735
3 706 736 735
3 706 707 736
3 707 737 736
3 707 708 737
3 708 738 737
3 708 709 738
3 709 739 738
3 709 710 739
3 710 740 739
3 710 711 740
3 711 741 740
3 711 712 741
3 712 742 741
3 712 713 742
3 713 743 742
3 713 714 743
3 714 744 743
3 714 715 744
3 715 745 744
3 715 716 745
3 716 746 745
3 716 717 746
3 717 747 746
3 717 718 747
3 718 748 747
3 718 719 748
3 719 749 748
3 720 721 750
3 721 751 750
3 721 722 751
3 722 752 751
3 722 723 752
3 723 753 752
3 723 724 753
3 724 754 753
3 724 725 754
3 725 755 754
3 725 726 755
3 726 756 755
3 726 727 756
3 727 757 756
3 727 728 757
3 728 758 757
3 728 729 758
3 729 759 758
3 729 730 759
3 730 760 759
3 730 731 760
3 731 761 760
3 731 732 761
3 732 762 761
3 732 733 762
3 733 763 762
3 733 734 763
3 734 764 763
3 734 735 764
3 735 765 764
3 735 736 765
3 736 766 765
3 736 737 766
3 737 767 766
3 737 738 767
3 738 768 767
3 738 739 768
3 739 769 768
3 739 740 769
3 740 770 769
3 740 741 770
3 741 771 770
3 741 742 771
3 742 772 771
3 742 743 772
3 743 773 772
3 743 744 773
3 744 774 773
3 744 745 774
3 745 775 774
3 745 746 775
3 746 776 775
3 746 747 776
3 747 777 776
3 747 748 777
3 748 778 777
3 748 749 778
3 749 779 778
3 750 751 780
3 751 781 780
3 751 752 781
3 752 782 781
3 752 753 782
3 753 783 782
3 753 754 783
3 754 784 783
3 754 755 784
3 755 785 784
3 755 756 785
3 756 786 785
3 756 757 786
3 757 787 786
3 757 758 787
3 758 788 787
3 758 759 788
3 759 789 788
3 759 760 789
3 760 790 789
3 760 761 790
3 761 791 790
3 761 762 791
3 762 792 791
3 762 763 792
3 763 793 792
3 763 764 793
3 764 794 793
3 764 765 794
3 765 795 794
3 765 766 795
3 766 796 795
3 766 767 796
3 767 797 796
3 767 768 797
3 768 798 797
3 768 769 798
3 769 799 798
3 769 770 799
3 770 800 799
3 770 771 800
3 771 801 800
3 771 772 801
3 772 802 801
3 772 773 802
3 773 803 802
3 773 774 803
3 774 804 803
3 774 775 804
3 775 805 804
3 775 776 805
3 776 806 805
3 776 777 806
3 777 807 806
3 777 778 807
3 778 808 807
3 778 779 808
3 779 809 808
3 780 781 810
3 781 811 810
3 781 782 811
3 782 812 811
3 782 783 812
3 783 813 812
3 783 784 813
3 784 814 813
3 784 785 814
3 785 815 814
3 785 786 815
3 786 816 815
3 786 787 816
3 787 817 816
3 787 788 817
3 788 818 817
3 788 789 818
3 789 819 818
3 789 790 819
3 790 820 819
3 790 791 820
3 791 821 820
3 791 792 821
3 792 822 821
3 792 793 822
3 793 823 822
3 793 794 823
3 794 824 823
3 794 795 824
3 795 825 824
3 795 796 825
3 796 826 825
3 796 797 826
3 797 827 826
3 797 798 827
3 798 828 827
3 798 799 828
3 799 829 828
3 799 800 829
3 800 830 829
3 800 801 830
3 801 831 830
3 801 802 831
3 802 832 831
3 802 803 832
3 803 833 832
3 803 804 833
3 804 834 833
3 804 805 834
3 805 835 834
3 805 806 835
3 806 836 835
3 806 807 836
3 807 837 836
3 807 808 837
3 808 838 837
3 808 809 838
3 809 839 838
3 810 811 840
3 811 841 840
3 811 812 841
3 812 842 841
3 812 813 842
3 813 843 842
3 813 814 843
3 814 844 843
3 814 815 844
3 815 845 844
3 815 816 845
3 816 846 845
3 816 817 846
3 817 847 846
3 817 818 847
3 818 848 847
3 818 819 848
3 819 849 848
3 819 820 849
3 820 850 849
3 820 821 850
3 821 851 850
3 821 822 851
3 822 852 851
3 822 823 852
3 823 853 852
3 823 824 853
3 824 854 853
3 824 825 854
3 825 855 854
3 825 826 855
3 826 856 855
3 826 827 856
3 827 857 856
3 827 828 857
3 828 858 857
3 828 829 858
3 829 859 858
3 829 830 859
3 830 860 859
3 830 831 860
3 831 861 860
3 831 832 861
3 832 862 861
3 832 833 862
3 833 863 862
3 833 834 863
3 834 864 863
3 834 835 864
3 835 865 864
3 835 836 865
3 836 866 865
3 836 837 866
3 837 867 866
3 837 838 867
3 838 868 867
3 838 839 868
3 839 869 868
3 840 841 870
3 841 871 870
3 841 842 871
3 842 872 871
3 842 843 872
3 843 873 872
3 843 844 873
3 844 874 873
3 844 845 874
3 845 875 874
3 845 846 875
3 846 876 875
3 846 847 876
3 847 877 876
3 847 848 877
3 848 878 877
3 848 849 878
3 849 879 878
3 849 850 879
3 850 880 879
3 850 851 880
3 851 881 880
3 851 852 881
3 852 882 881
3 852 853 882
3 853 883 882
3 853 854 883
3 854 884 883
3 854 855 884
3 855 885 884
3 855 856 885
3 856 886 885
3 856 857 886
3 857 887 886
3 857 858 887
3 858 888 887
3 858 859 888
3 859 889 888
3 859 860 889
3 860 890 889
3 860 861 890
3 861 891 890
3 861 862 891
3 862 892 891
3 862 863 892
3 863 893 892
3 863 864 893
3 864 894 893
3 864 865 894
3 865 895 894
3 865 866 895
3 866 896 895
3 866 867 896
3 867 897 896
3 867 868 897
3 868 898 897
3 868 869 898
3 869 899 898
