<?xml version="1.0" encoding="UTF-8"?>
<svg xmlns="http://www.w3.org/2000/svg" xmlns:xlink="http://www.w3.org/1999/xlink" width="1920pt" height="1080pt" viewBox="0 0 1920 1080" version="1.1">
<g id="surface1">
<rect x="0" y="0" width="1920" height="1080" style="fill:rgb(78.431373%,78.431373%,78.431373%);fill-opacity:1;stroke:none;"/>
<rect x="0" y="0" width="1920" height="1080" style="fill:rgb(0%,0%,0%);fill-opacity:1;stroke:none;"/>
<rect x="0" y="0" width="1920" height="1080" style="fill:rgb(100%,100%,100%);fill-opacity:1;stroke:none;"/>
<path style=" stroke:none;fill-rule:nonzero;fill:rgb(100%,75.686275%,40.784314%);fill-opacity:0.470588;" d="M 1249.324219 959.054688 C 1249.324219 1003.789062 1213.058594 1040.054688 1168.324219 1040.054688 C 1123.589844 1040.054688 1087.324219 1003.789062 1087.324219 959.054688 C 1087.324219 914.320312 1123.589844 878.054688 1168.324219 878.054688 C 1213.058594 878.054688 1249.324219 914.320312 1249.324219 959.054688 Z M 1249.324219 959.054688 "/>
<path style=" stroke:none;fill-rule:nonzero;fill:rgb(0%,0%,0%);fill-opacity:1;" d="M 1169.324219 959.054688 C 1169.324219 960.390625 1167.324219 960.390625 1167.324219 959.054688 C 1167.324219 957.722656 1169.324219 957.722656 1169.324219 959.054688 Z M 1169.324219 959.054688 "/>
<path style=" stroke:none;fill-rule:nonzero;fill:rgb(40.784314%,54.901961%,100%);fill-opacity:0.470588;" d="M 1095.136719 396.4375 C 1095.136719 441.175781 1058.871094 477.4375 1014.136719 477.4375 C 969.402344 477.4375 933.136719 441.175781 933.136719 396.4375 C 933.136719 351.703125 969.402344 315.4375 1014.136719 315.4375 C 1058.871094 315.4375 1095.136719 351.703125 1095.136719 396.4375 Z M 1095.136719 396.4375 "/>
<path style=" stroke:none;fill-rule:nonzero;fill:rgb(0%,0%,0%);fill-opacity:1;" d="M 1015.136719 396.4375 C 1015.136719 397.773438 1013.136719 397.773438 1013.136719 396.4375 C 1013.136719 395.105469 1015.136719 395.105469 1015.136719 396.4375 Z M 1015.136719 396.4375 "/>
<path style=" stroke:none;fill-rule:nonzero;fill:rgb(100%,100%,100%);fill-opacity:0.470588;" d="M 1449.289062 793.546875 C 1449.289062 834.953125 1415.722656 868.523438 1374.3125 868.523438 C 1332.90625 868.523438 1299.335938 834.953125 1299.335938 793.546875 C 1299.335938 752.136719 1332.90625 718.570312 1374.3125 718.570312 C 1415.722656 718.570312 1449.289062 752.136719 1449.289062 793.546875 Z M 1449.289062 793.546875 "/>
<path style=" stroke:none;fill-rule:nonzero;fill:rgb(0%,0%,0%);fill-opacity:1;" d="M 1375.3125 793.546875 C 1375.3125 794.878906 1373.3125 794.878906 1373.3125 793.546875 C 1373.3125 792.210938 1375.3125 792.210938 1375.3125 793.546875 Z M 1375.3125 793.546875 "/>
<path style=" stroke:none;fill-rule:nonzero;fill:rgb(100%,40.784314%,89.411765%);fill-opacity:0.470588;" d="M 720.90625 198.363281 C 720.90625 227.769531 697.070312 251.605469 667.667969 251.605469 C 638.265625 251.605469 614.429688 227.769531 614.429688 198.363281 C 614.429688 168.960938 638.265625 145.125 667.667969 145.125 C 697.070312 145.125 720.90625 168.960938 720.90625 198.363281 Z M 720.90625 198.363281 "/>
<path style=" stroke:none;fill-rule:nonzero;fill:rgb(0%,0%,0%);fill-opacity:1;" d="M 668.667969 198.363281 C 668.667969 199.699219 666.667969 199.699219 666.667969 198.363281 C 666.667969 197.03125 668.667969 197.03125 668.667969 198.363281 Z M 668.667969 198.363281 "/>
<path style=" stroke:none;fill-rule:nonzero;fill:rgb(100%,96.470588%,40.784314%);fill-opacity:0.470588;" d="M 1384.628906 828.585938 C 1384.628906 857.492188 1361.191406 880.929688 1332.285156 880.929688 C 1303.375 880.929688 1279.941406 857.492188 1279.941406 828.585938 C 1279.941406 799.675781 1303.375 776.242188 1332.285156 776.242188 C 1361.191406 776.242188 1384.628906 799.675781 1384.628906 828.585938 Z M 1384.628906 828.585938 "/>
<path style=" stroke:none;fill-rule:nonzero;fill:rgb(0%,0%,0%);fill-opacity:1;" d="M 1333.285156 828.585938 C 1333.285156 829.917969 1331.285156 829.917969 1331.285156 828.585938 C 1331.285156 827.25 1333.285156 827.25 1333.285156 828.585938 Z M 1333.285156 828.585938 "/>
<path style=" stroke:none;fill-rule:nonzero;fill:rgb(100%,100%,100%);fill-opacity:0.470588;" d="M 998.574219 540 C 998.574219 561.304688 981.304688 578.574219 960 578.574219 C 938.695312 578.574219 921.425781 561.304688 921.425781 540 C 921.425781 518.695312 938.695312 501.425781 960 501.425781 C 981.304688 501.425781 998.574219 518.695312 998.574219 540 Z M 998.574219 540 "/>
<path style=" stroke:none;fill-rule:nonzero;fill:rgb(0%,0%,0%);fill-opacity:1;" d="M 961 540 C 961 541.332031 959 541.332031 959 540 C 959 538.667969 961 538.667969 961 540 Z M 961 540 "/>
<path style=" stroke:none;fill-rule:nonzero;fill:rgb(100%,75.686275%,40.784314%);fill-opacity:0.470588;" d="M 957.890625 655.972656 C 957.890625 672.078125 944.835938 685.132812 928.730469 685.132812 C 912.625 685.132812 899.570312 672.078125 899.570312 655.972656 C 899.570312 639.871094 912.625 626.8125 928.730469 626.8125 C 944.835938 626.8125 957.890625 639.871094 957.890625 655.972656 Z M 957.890625 655.972656 "/>
<path style=" stroke:none;fill-rule:nonzero;fill:rgb(0%,0%,0%);fill-opacity:1;" d="M 929.730469 655.972656 C 929.730469 657.308594 927.730469 657.308594 927.730469 655.972656 C 927.730469 654.640625 929.730469 654.640625 929.730469 655.972656 Z M 929.730469 655.972656 "/>
<path style=" stroke:none;fill-rule:nonzero;fill:rgb(100%,96.470588%,40.784314%);fill-opacity:0.470588;" d="M 578.503906 682.609375 C 578.503906 697.554688 566.386719 709.667969 551.445312 709.667969 C 536.5 709.667969 524.386719 697.554688 524.386719 682.609375 C 524.386719 667.664062 536.5 655.550781 551.445312 655.550781 C 566.386719 655.550781 578.503906 667.664062 578.503906 682.609375 Z M 578.503906 682.609375 "/>
<path style=" stroke:none;fill-rule:nonzero;fill:rgb(0%,0%,0%);fill-opacity:1;" d="M 552.445312 682.609375 C 552.445312 683.941406 550.445312 683.941406 550.445312 682.609375 C 550.445312 681.277344 552.445312 681.277344 552.445312 682.609375 Z M 552.445312 682.609375 "/>
<path style=" stroke:none;fill-rule:nonzero;fill:rgb(100%,75.686275%,40.784314%);fill-opacity:0.470588;" d="M 1413.210938 740.945312 C 1413.210938 755.398438 1401.492188 767.117188 1387.039062 767.117188 C 1372.582031 767.117188 1360.867188 755.398438 1360.867188 740.945312 C 1360.867188 726.492188 1372.582031 714.773438 1387.039062 714.773438 C 1401.492188 714.773438 1413.210938 726.492188 1413.210938 740.945312 Z M 1413.210938 740.945312 "/>
<path style=" stroke:none;fill-rule:nonzero;fill:rgb(0%,0%,0%);fill-opacity:1;" d="M 1388.039062 740.945312 C 1388.039062 742.277344 1386.039062 742.277344 1386.039062 740.945312 C 1386.039062 739.613281 1388.039062 739.613281 1388.039062 740.945312 Z M 1388.039062 740.945312 "/>
<path style=" stroke:none;fill-rule:nonzero;fill:rgb(40.784314%,54.901961%,100%);fill-opacity:0.470588;" d="M 901.964844 862.050781 C 901.964844 875.472656 891.085938 886.351562 877.667969 886.351562 C 864.246094 886.351562 853.367188 875.472656 853.367188 862.050781 C 853.367188 848.632812 864.246094 837.753906 877.667969 837.753906 C 891.085938 837.753906 901.964844 848.632812 901.964844 862.050781 Z M 901.964844 862.050781 "/>
<path style=" stroke:none;fill-rule:nonzero;fill:rgb(0%,0%,0%);fill-opacity:1;" d="M 878.667969 862.050781 C 878.667969 863.386719 876.667969 863.386719 876.667969 862.050781 C 876.667969 860.71875 878.667969 860.71875 878.667969 862.050781 Z M 878.667969 862.050781 "/>
<path style=" stroke:none;fill-rule:nonzero;fill:rgb(40.784314%,54.901961%,100%);fill-opacity:0.470588;" d="M 562.792969 572.328125 C 562.792969 584.03125 553.308594 593.515625 541.609375 593.515625 C 529.910156 593.515625 520.425781 584.03125 520.425781 572.328125 C 520.425781 560.628906 529.910156 551.144531 541.609375 551.144531 C 553.308594 551.144531 562.792969 560.628906 562.792969 572.328125 Z M 562.792969 572.328125 "/>
<path style=" stroke:none;fill-rule:nonzero;fill:rgb(0%,0%,0%);fill-opacity:1;" d="M 542.609375 572.328125 C 542.609375 573.664062 540.609375 573.664062 540.609375 572.328125 C 540.609375 570.996094 542.609375 570.996094 542.609375 572.328125 Z M 542.609375 572.328125 "/>
<path style=" stroke:none;fill-rule:nonzero;fill:rgb(100%,75.686275%,40.784314%);fill-opacity:0.470588;" d="M 1315.925781 187.988281 C 1315.925781 198.03125 1307.785156 206.175781 1297.742188 206.175781 C 1287.699219 206.175781 1279.554688 198.03125 1279.554688 187.988281 C 1279.554688 177.945312 1287.699219 169.804688 1297.742188 169.804688 C 1307.785156 169.804688 1315.925781 177.945312 1315.925781 187.988281 Z M 1315.925781 187.988281 "/>
<path style=" stroke:none;fill-rule:nonzero;fill:rgb(0%,0%,0%);fill-opacity:1;" d="M 1298.742188 187.988281 C 1298.742188 189.324219 1296.742188 189.324219 1296.742188 187.988281 C 1296.742188 186.65625 1298.742188 186.65625 1298.742188 187.988281 Z M 1298.742188 187.988281 "/>
<path style=" stroke:none;fill-rule:nonzero;fill:rgb(100%,100%,100%);fill-opacity:0.470588;" d="M 1140.222656 990.554688 C 1140.222656 1000.234375 1132.375 1008.078125 1122.699219 1008.078125 C 1113.019531 1008.078125 1105.175781 1000.234375 1105.175781 990.554688 C 1105.175781 980.878906 1113.019531 973.035156 1122.699219 973.035156 C 1132.375 973.035156 1140.222656 980.878906 1140.222656 990.554688 Z M 1140.222656 990.554688 "/>
<path style=" stroke:none;fill-rule:nonzero;fill:rgb(0%,0%,0%);fill-opacity:1;" d="M 1123.699219 990.554688 C 1123.699219 991.890625 1121.699219 991.890625 1121.699219 990.554688 C 1121.699219 989.222656 1123.699219 989.222656 1123.699219 990.554688 Z M 1123.699219 990.554688 "/>
<path style=" stroke:none;fill-rule:nonzero;fill:rgb(100%,40.784314%,89.411765%);fill-opacity:0.470588;" d="M 1119.265625 240.296875 C 1119.265625 248.785156 1112.386719 255.667969 1103.898438 255.667969 C 1095.410156 255.667969 1088.527344 248.785156 1088.527344 240.296875 C 1088.527344 231.808594 1095.410156 224.929688 1103.898438 224.929688 C 1112.386719 224.929688 1119.265625 231.808594 1119.265625 240.296875 Z M 1119.265625 240.296875 "/>
<path style=" stroke:none;fill-rule:nonzero;fill:rgb(0%,0%,0%);fill-opacity:1;" d="M 1104.898438 240.296875 C 1104.898438 241.632812 1102.898438 241.632812 1102.898438 240.296875 C 1102.898438 238.964844 1104.898438 238.964844 1104.898438 240.296875 Z M 1104.898438 240.296875 "/>
<path style=" stroke:none;fill-rule:nonzero;fill:rgb(100%,40.784314%,89.411765%);fill-opacity:0.470588;" d="M 1040.007812 915.429688 C 1040.007812 923.484375 1033.480469 930.011719 1025.429688 930.011719 C 1017.375 930.011719 1010.847656 923.484375 1010.847656 915.429688 C 1010.847656 907.378906 1017.375 900.851562 1025.429688 900.851562 C 1033.480469 900.851562 1040.007812 907.378906 1040.007812 915.429688 Z M 1040.007812 915.429688 "/>
<path style=" stroke:none;fill-rule:nonzero;fill:rgb(0%,0%,0%);fill-opacity:1;" d="M 1026.429688 915.429688 C 1026.429688 916.765625 1024.429688 916.765625 1024.429688 915.429688 C 1024.429688 914.097656 1026.429688 914.097656 1026.429688 915.429688 Z M 1026.429688 915.429688 "/>
<path style=" stroke:none;fill-rule:nonzero;fill:rgb(100%,96.470588%,40.784314%);fill-opacity:0.470588;" d="M 765.84375 937.050781 C 765.84375 945.105469 759.316406 951.632812 751.261719 951.632812 C 743.210938 951.632812 736.683594 945.105469 736.683594 937.050781 C 736.683594 929 743.210938 922.472656 751.261719 922.472656 C 759.316406 922.472656 765.84375 929 765.84375 937.050781 Z M 765.84375 937.050781 "/>
<path style=" stroke:none;fill-rule:nonzero;fill:rgb(0%,0%,0%);fill-opacity:1;" d="M 752.261719 937.050781 C 752.261719 938.386719 750.261719 938.386719 750.261719 937.050781 C 750.261719 935.71875 752.261719 935.71875 752.261719 937.050781 Z M 752.261719 937.050781 "/>
<path style=" stroke:none;fill-rule:nonzero;fill:rgb(40.784314%,54.901961%,100%);fill-opacity:0.470588;" d="M 829.9375 528.867188 C 829.9375 536.457031 823.785156 542.613281 816.191406 542.613281 C 808.601562 542.613281 802.445312 536.457031 802.445312 528.867188 C 802.445312 521.273438 808.601562 515.121094 816.191406 515.121094 C 823.785156 515.121094 829.9375 521.273438 829.9375 528.867188 Z M 829.9375 528.867188 "/>
<path style=" stroke:none;fill-rule:nonzero;fill:rgb(0%,0%,0%);fill-opacity:1;" d="M 817.191406 528.867188 C 817.191406 530.199219 815.191406 530.199219 815.191406 528.867188 C 815.191406 527.53125 817.191406 527.53125 817.191406 528.867188 Z M 817.191406 528.867188 "/>
<path style=" stroke:none;fill-rule:nonzero;fill:rgb(100%,40.784314%,89.411765%);fill-opacity:0.470588;" d="M 876.574219 632.027344 C 876.574219 638.601562 871.246094 643.933594 864.667969 643.933594 C 858.09375 643.933594 852.765625 638.601562 852.765625 632.027344 C 852.765625 625.453125 858.09375 620.125 864.667969 620.125 C 871.246094 620.125 876.574219 625.453125 876.574219 632.027344 Z M 876.574219 632.027344 "/>
<path style=" stroke:none;fill-rule:nonzero;fill:rgb(0%,0%,0%);fill-opacity:1;" d="M 865.667969 632.027344 C 865.667969 633.363281 863.667969 633.363281 863.667969 632.027344 C 863.667969 630.695312 865.667969 630.695312 865.667969 632.027344 Z M 865.667969 632.027344 "/>
<path style=" stroke:none;fill-rule:nonzero;fill:rgb(40.784314%,100%,61.568627%);fill-opacity:0.470588;" d="M 1243.859375 266.222656 C 1243.859375 272.796875 1238.53125 278.128906 1231.957031 278.128906 C 1225.382812 278.128906 1220.050781 272.796875 1220.050781 266.222656 C 1220.050781 259.648438 1225.382812 254.320312 1231.957031 254.320312 C 1238.53125 254.320312 1243.859375 259.648438 1243.859375 266.222656 Z M 1243.859375 266.222656 "/>
<path style=" stroke:none;fill-rule:nonzero;fill:rgb(0%,0%,0%);fill-opacity:1;" d="M 1232.957031 266.222656 C 1232.957031 267.558594 1230.957031 267.558594 1230.957031 266.222656 C 1230.957031 264.890625 1232.957031 264.890625 1232.957031 266.222656 Z M 1232.957031 266.222656 "/>
<path style=" stroke:none;fill-rule:nonzero;fill:rgb(40.784314%,54.901961%,100%);fill-opacity:0.470588;" d="M 1301.503906 322.351562 C 1301.503906 328.925781 1296.175781 334.253906 1289.601562 334.253906 C 1283.027344 334.253906 1277.695312 328.925781 1277.695312 322.351562 C 1277.695312 315.773438 1283.027344 310.445312 1289.601562 310.445312 C 1296.175781 310.445312 1301.503906 315.773438 1301.503906 322.351562 Z M 1301.503906 322.351562 "/>
<path style=" stroke:none;fill-rule:nonzero;fill:rgb(0%,0%,0%);fill-opacity:1;" d="M 1290.601562 322.351562 C 1290.601562 323.683594 1288.601562 323.683594 1288.601562 322.351562 C 1288.601562 321.015625 1290.601562 321.015625 1290.601562 322.351562 Z M 1290.601562 322.351562 "/>
<path style=" stroke:none;fill-rule:nonzero;fill:rgb(100%,40.784314%,89.411765%);fill-opacity:0.470588;" d="M 606.859375 388.089844 C 606.859375 394.089844 601.992188 398.957031 595.992188 398.957031 C 589.992188 398.957031 585.125 394.089844 585.125 388.089844 C 585.125 382.085938 589.992188 377.222656 595.992188 377.222656 C 601.992188 377.222656 606.859375 382.085938 606.859375 388.089844 Z M 606.859375 388.089844 "/>
<path style=" stroke:none;fill-rule:nonzero;fill:rgb(0%,0%,0%);fill-opacity:1;" d="M 596.992188 388.089844 C 596.992188 389.421875 594.992188 389.421875 594.992188 388.089844 C 594.992188 386.753906 596.992188 386.753906 596.992188 388.089844 Z M 596.992188 388.089844 "/>
<path style=" stroke:none;fill-rule:nonzero;fill:rgb(40.784314%,100%,61.568627%);fill-opacity:0.470588;" d="M 911.726562 136.085938 C 911.726562 142.085938 906.859375 146.953125 900.859375 146.953125 C 894.855469 146.953125 889.992188 142.085938 889.992188 136.085938 C 889.992188 130.085938 894.855469 125.21875 900.859375 125.21875 C 906.859375 125.21875 911.726562 130.085938 911.726562 136.085938 Z M 911.726562 136.085938 "/>
<path style=" stroke:none;fill-rule:nonzero;fill:rgb(0%,0%,0%);fill-opacity:1;" d="M 901.859375 136.085938 C 901.859375 137.417969 899.859375 137.417969 899.859375 136.085938 C 899.859375 134.753906 901.859375 134.753906 901.859375 136.085938 Z M 901.859375 136.085938 "/>
<path style=" stroke:none;fill-rule:nonzero;fill:rgb(100%,100%,100%);fill-opacity:0.470588;" d="M 1108.742188 56.085938 C 1108.742188 61.453125 1104.390625 65.808594 1099.023438 65.808594 C 1093.65625 65.808594 1089.300781 61.453125 1089.300781 56.085938 C 1089.300781 50.71875 1093.65625 46.367188 1099.023438 46.367188 C 1104.390625 46.367188 1108.742188 50.71875 1108.742188 56.085938 Z M 1108.742188 56.085938 "/>
<path style=" stroke:none;fill-rule:nonzero;fill:rgb(0%,0%,0%);fill-opacity:1;" d="M 1100.023438 56.085938 C 1100.023438 57.421875 1098.023438 57.421875 1098.023438 56.085938 C 1098.023438 54.753906 1100.023438 54.753906 1100.023438 56.085938 Z M 1100.023438 56.085938 "/>
<path style=" stroke:none;fill-rule:nonzero;fill:rgb(40.784314%,100%,61.568627%);fill-opacity:0.470588;" d="M 1314.78125 714.753906 C 1314.78125 720.121094 1310.429688 724.472656 1305.0625 724.472656 C 1299.691406 724.472656 1295.339844 720.121094 1295.339844 714.753906 C 1295.339844 709.382812 1299.691406 705.03125 1305.0625 705.03125 C 1310.429688 705.03125 1314.78125 709.382812 1314.78125 714.753906 Z M 1314.78125 714.753906 "/>
<path style=" stroke:none;fill-rule:nonzero;fill:rgb(0%,0%,0%);fill-opacity:1;" d="M 1306.0625 714.753906 C 1306.0625 716.085938 1304.0625 716.085938 1304.0625 714.753906 C 1304.0625 713.417969 1306.0625 713.417969 1306.0625 714.753906 Z M 1306.0625 714.753906 "/>
<path style=" stroke:none;fill-rule:nonzero;fill:rgb(100%,100%,100%);fill-opacity:0.470588;" d="M 1139.539062 175.6875 C 1139.539062 181.054688 1135.1875 185.40625 1129.820312 185.40625 C 1124.453125 185.40625 1120.101562 181.054688 1120.101562 175.6875 C 1120.101562 170.316406 1124.453125 165.964844 1129.820312 165.964844 C 1135.1875 165.964844 1139.539062 170.316406 1139.539062 175.6875 Z M 1139.539062 175.6875 "/>
<path style=" stroke:none;fill-rule:nonzero;fill:rgb(0%,0%,0%);fill-opacity:1;" d="M 1130.820312 175.6875 C 1130.820312 177.019531 1128.820312 177.019531 1128.820312 175.6875 C 1128.820312 174.351562 1130.820312 174.351562 1130.820312 175.6875 Z M 1130.820312 175.6875 "/>
<path style=" stroke:none;fill-rule:nonzero;fill:rgb(100%,96.470588%,40.784314%);fill-opacity:0.470588;" d="M 1364.074219 265.441406 C 1364.074219 270.089844 1360.304688 273.855469 1355.65625 273.855469 C 1351.007812 273.855469 1347.238281 270.089844 1347.238281 265.441406 C 1347.238281 260.789062 1351.007812 257.023438 1355.65625 257.023438 C 1360.304688 257.023438 1364.074219 260.789062 1364.074219 265.441406 Z M 1364.074219 265.441406 "/>
<path style=" stroke:none;fill-rule:nonzero;fill:rgb(0%,0%,0%);fill-opacity:1;" d="M 1356.65625 265.441406 C 1356.65625 266.773438 1354.65625 266.773438 1354.65625 265.441406 C 1354.65625 264.105469 1356.65625 264.105469 1356.65625 265.441406 Z M 1356.65625 265.441406 "/>
<path style=" stroke:none;fill-rule:nonzero;fill:rgb(100%,75.686275%,40.784314%);fill-opacity:0.470588;" d="M 1437.601562 445.816406 C 1437.601562 450.464844 1433.835938 454.234375 1429.183594 454.234375 C 1424.535156 454.234375 1420.765625 450.464844 1420.765625 445.816406 C 1420.765625 441.167969 1424.535156 437.398438 1429.183594 437.398438 C 1433.835938 437.398438 1437.601562 441.167969 1437.601562 445.816406 Z M 1437.601562 445.816406 "/>
<path style=" stroke:none;fill-rule:nonzero;fill:rgb(0%,0%,0%);fill-opacity:1;" d="M 1430.183594 445.816406 C 1430.183594 447.148438 1428.183594 447.148438 1428.183594 445.816406 C 1428.183594 444.484375 1430.183594 444.484375 1430.183594 445.816406 Z M 1430.183594 445.816406 "/>
<path style=" stroke:none;fill-rule:nonzero;fill:rgb(100%,100%,100%);fill-opacity:0.470588;" d="M 966.125 575.1875 C 966.125 579.835938 962.355469 583.605469 957.707031 583.605469 C 953.058594 583.605469 949.289062 579.835938 949.289062 575.1875 C 949.289062 570.539062 953.058594 566.769531 957.707031 566.769531 C 962.355469 566.769531 966.125 570.539062 966.125 575.1875 Z M 966.125 575.1875 "/>
<path style=" stroke:none;fill-rule:nonzero;fill:rgb(0%,0%,0%);fill-opacity:1;" d="M 958.707031 575.1875 C 958.707031 576.519531 956.707031 576.519531 956.707031 575.1875 C 956.707031 573.851562 958.707031 573.851562 958.707031 575.1875 Z M 958.707031 575.1875 "/>
<path style=" stroke:none;fill-rule:nonzero;fill:rgb(100%,40.784314%,89.411765%);fill-opacity:0.470588;" d="M 1208.269531 909.925781 C 1208.269531 914.574219 1204.5 918.34375 1199.851562 918.34375 C 1195.203125 918.34375 1191.433594 914.574219 1191.433594 909.925781 C 1191.433594 905.277344 1195.203125 901.507812 1199.851562 901.507812 C 1204.5 901.507812 1208.269531 905.277344 1208.269531 909.925781 Z M 1208.269531 909.925781 "/>
<path style=" stroke:none;fill-rule:nonzero;fill:rgb(0%,0%,0%);fill-opacity:1;" d="M 1200.851562 909.925781 C 1200.851562 911.257812 1198.851562 911.257812 1198.851562 909.925781 C 1198.851562 908.59375 1200.851562 908.59375 1200.851562 909.925781 Z M 1200.851562 909.925781 "/>
<path style=" stroke:none;fill-rule:nonzero;fill:rgb(40.784314%,100%,61.568627%);fill-opacity:0.470588;" d="M 630.683594 314.464844 C 630.683594 319.113281 626.914062 322.882812 622.265625 322.882812 C 617.617188 322.882812 613.847656 319.113281 613.847656 314.464844 C 613.847656 309.8125 617.617188 306.046875 622.265625 306.046875 C 626.914062 306.046875 630.683594 309.8125 630.683594 314.464844 Z M 630.683594 314.464844 "/>
<path style=" stroke:none;fill-rule:nonzero;fill:rgb(0%,0%,0%);fill-opacity:1;" d="M 623.265625 314.464844 C 623.265625 315.796875 621.265625 315.796875 621.265625 314.464844 C 621.265625 313.128906 623.265625 313.128906 623.265625 314.464844 Z M 623.265625 314.464844 "/>
<path style=" stroke:none;fill-rule:nonzero;fill:rgb(100%,100%,100%);fill-opacity:0.470588;" d="M 1100.835938 205.601562 C 1100.835938 210.25 1097.070312 214.019531 1092.417969 214.019531 C 1087.769531 214.019531 1084 210.25 1084 205.601562 C 1084 200.953125 1087.769531 197.183594 1092.417969 197.183594 C 1097.070312 197.183594 1100.835938 200.953125 1100.835938 205.601562 Z M 1100.835938 205.601562 "/>
<path style=" stroke:none;fill-rule:nonzero;fill:rgb(0%,0%,0%);fill-opacity:1;" d="M 1093.417969 205.601562 C 1093.417969 206.9375 1091.417969 206.9375 1091.417969 205.601562 C 1091.417969 204.269531 1093.417969 204.269531 1093.417969 205.601562 Z M 1093.417969 205.601562 "/>
<path style=" stroke:none;fill-rule:nonzero;fill:rgb(40.784314%,100%,61.568627%);fill-opacity:0.470588;" d="M 821.703125 204.707031 C 821.703125 209.355469 817.933594 213.125 813.285156 213.125 C 808.636719 213.125 804.867188 209.355469 804.867188 204.707031 C 804.867188 200.058594 808.636719 196.289062 813.285156 196.289062 C 817.933594 196.289062 821.703125 200.058594 821.703125 204.707031 Z M 821.703125 204.707031 "/>
<path style=" stroke:none;fill-rule:nonzero;fill:rgb(0%,0%,0%);fill-opacity:1;" d="M 814.285156 204.707031 C 814.285156 206.039062 812.285156 206.039062 812.285156 204.707031 C 812.285156 203.371094 814.285156 203.371094 814.285156 204.707031 Z M 814.285156 204.707031 "/>
<path style=" stroke:none;fill-rule:nonzero;fill:rgb(40.784314%,100%,61.568627%);fill-opacity:0.470588;" d="M 1362.511719 320.90625 C 1362.511719 324.703125 1359.433594 327.78125 1355.640625 327.78125 C 1351.84375 327.78125 1348.765625 324.703125 1348.765625 320.90625 C 1348.765625 317.109375 1351.84375 314.035156 1355.640625 314.035156 C 1359.433594 314.035156 1362.511719 317.109375 1362.511719 320.90625 Z M 1362.511719 320.90625 "/>
<path style=" stroke:none;fill-rule:nonzero;fill:rgb(0%,0%,0%);fill-opacity:1;" d="M 1356.640625 320.90625 C 1356.640625 322.242188 1354.640625 322.242188 1354.640625 320.90625 C 1354.640625 319.574219 1356.640625 319.574219 1356.640625 320.90625 Z M 1356.640625 320.90625 "/>
<path style=" stroke:none;fill-rule:nonzero;fill:rgb(100%,100%,100%);fill-opacity:0.470588;" d="M 1259.160156 802.902344 C 1259.160156 806.699219 1256.082031 809.777344 1252.289062 809.777344 C 1248.492188 809.777344 1245.414062 806.699219 1245.414062 802.902344 C 1245.414062 799.109375 1248.492188 796.03125 1252.289062 796.03125 C 1256.082031 796.03125 1259.160156 799.109375 1259.160156 802.902344 Z M 1259.160156 802.902344 "/>
<path style=" stroke:none;fill-rule:nonzero;fill:rgb(0%,0%,0%);fill-opacity:1;" d="M 1253.289062 802.902344 C 1253.289062 804.238281 1251.289062 804.238281 1251.289062 802.902344 C 1251.289062 801.570312 1253.289062 801.570312 1253.289062 802.902344 Z M 1253.289062 802.902344 "/>
<path style=" stroke:none;fill-rule:nonzero;fill:rgb(100%,40.784314%,89.411765%);fill-opacity:0.470588;" d="M 1397.679688 406.039062 C 1397.679688 409.835938 1394.605469 412.914062 1390.808594 412.914062 C 1387.011719 412.914062 1383.933594 409.835938 1383.933594 406.039062 C 1383.933594 402.246094 1387.011719 399.167969 1390.808594 399.167969 C 1394.605469 399.167969 1397.679688 402.246094 1397.679688 406.039062 Z M 1397.679688 406.039062 "/>
<path style=" stroke:none;fill-rule:nonzero;fill:rgb(0%,0%,0%);fill-opacity:1;" d="M 1391.808594 406.039062 C 1391.808594 407.375 1389.808594 407.375 1389.808594 406.039062 C 1389.808594 404.707031 1391.808594 404.707031 1391.808594 406.039062 Z M 1391.808594 406.039062 "/>
<path style=" stroke:none;fill-rule:nonzero;fill:rgb(40.784314%,100%,61.568627%);fill-opacity:0.470588;" d="M 563.832031 624.648438 C 563.832031 628.445312 560.753906 631.519531 556.957031 631.519531 C 553.160156 631.519531 550.085938 628.445312 550.085938 624.648438 C 550.085938 620.851562 553.160156 617.773438 556.957031 617.773438 C 560.753906 617.773438 563.832031 620.851562 563.832031 624.648438 Z M 563.832031 624.648438 "/>
<path style=" stroke:none;fill-rule:nonzero;fill:rgb(0%,0%,0%);fill-opacity:1;" d="M 557.957031 624.648438 C 557.957031 625.980469 555.957031 625.980469 555.957031 624.648438 C 555.957031 623.316406 557.957031 623.316406 557.957031 624.648438 Z M 557.957031 624.648438 "/>
<path style=" stroke:none;fill-rule:nonzero;fill:rgb(40.784314%,100%,61.568627%);fill-opacity:0.470588;" d="M 1130.796875 567.210938 C 1130.796875 571.007812 1127.71875 574.085938 1123.921875 574.085938 C 1120.128906 574.085938 1117.050781 571.007812 1117.050781 567.210938 C 1117.050781 563.417969 1120.128906 560.339844 1123.921875 560.339844 C 1127.71875 560.339844 1130.796875 563.417969 1130.796875 567.210938 Z M 1130.796875 567.210938 "/>
<path style=" stroke:none;fill-rule:nonzero;fill:rgb(0%,0%,0%);fill-opacity:1;" d="M 1124.921875 567.210938 C 1124.921875 568.546875 1122.921875 568.546875 1122.921875 567.210938 C 1122.921875 565.878906 1124.921875 565.878906 1124.921875 567.210938 Z M 1124.921875 567.210938 "/>
<path style=" stroke:none;fill-rule:nonzero;fill:rgb(100%,96.470588%,40.784314%);fill-opacity:0.470588;" d="M 852.96875 155.15625 C 852.96875 158.949219 849.890625 162.027344 846.09375 162.027344 C 842.300781 162.027344 839.222656 158.949219 839.222656 155.15625 C 839.222656 151.359375 842.300781 148.28125 846.09375 148.28125 C 849.890625 148.28125 852.96875 151.359375 852.96875 155.15625 Z M 852.96875 155.15625 "/>
<path style=" stroke:none;fill-rule:nonzero;fill:rgb(0%,0%,0%);fill-opacity:1;" d="M 847.09375 155.15625 C 847.09375 156.488281 845.09375 156.488281 845.09375 155.15625 C 845.09375 153.820312 847.09375 153.820312 847.09375 155.15625 Z M 847.09375 155.15625 "/>
<path style=" stroke:none;fill-rule:nonzero;fill:rgb(100%,96.470588%,40.784314%);fill-opacity:0.470588;" d="M 1072.410156 989.152344 C 1072.410156 992.949219 1069.332031 996.027344 1065.535156 996.027344 C 1061.742188 996.027344 1058.664062 992.949219 1058.664062 989.152344 C 1058.664062 985.359375 1061.742188 982.28125 1065.535156 982.28125 C 1069.332031 982.28125 1072.410156 985.359375 1072.410156 989.152344 Z M 1072.410156 989.152344 "/>
<path style=" stroke:none;fill-rule:nonzero;fill:rgb(0%,0%,0%);fill-opacity:1;" d="M 1066.535156 989.152344 C 1066.535156 990.488281 1064.535156 990.488281 1064.535156 989.152344 C 1064.535156 987.820312 1066.535156 987.820312 1066.535156 989.152344 Z M 1066.535156 989.152344 "/>
<path style=" stroke:none;fill-rule:nonzero;fill:rgb(100%,40.784314%,89.411765%);fill-opacity:0.470588;" d="M 913.246094 976.582031 C 913.246094 980.378906 910.171875 983.453125 906.375 983.453125 C 902.578125 983.453125 899.5 980.378906 899.5 976.582031 C 899.5 972.785156 902.578125 969.707031 906.375 969.707031 C 910.171875 969.707031 913.246094 972.785156 913.246094 976.582031 Z M 913.246094 976.582031 "/>
<path style=" stroke:none;fill-rule:nonzero;fill:rgb(0%,0%,0%);fill-opacity:1;" d="M 907.375 976.582031 C 907.375 977.914062 905.375 977.914062 905.375 976.582031 C 905.375 975.25 907.375 975.25 907.375 976.582031 Z M 907.375 976.582031 "/>
<path style=" stroke:none;fill-rule:nonzero;fill:rgb(100%,100%,100%);fill-opacity:0.470588;" d="M 799.867188 980.457031 C 799.867188 984.25 796.789062 987.328125 792.992188 987.328125 C 789.195312 987.328125 786.121094 984.25 786.121094 980.457031 C 786.121094 976.660156 789.195312 973.582031 792.992188 973.582031 C 796.789062 973.582031 799.867188 976.660156 799.867188 980.457031 Z M 799.867188 980.457031 "/>
<path style=" stroke:none;fill-rule:nonzero;fill:rgb(0%,0%,0%);fill-opacity:1;" d="M 793.992188 980.457031 C 793.992188 981.789062 791.992188 981.789062 791.992188 980.457031 C 791.992188 979.121094 793.992188 979.121094 793.992188 980.457031 Z M 793.992188 980.457031 "/>
<path style=" stroke:none;fill-rule:nonzero;fill:rgb(100%,100%,100%);fill-opacity:0.470588;" d="M 686.386719 266.066406 C 686.386719 269.863281 683.308594 272.941406 679.515625 272.941406 C 675.71875 272.941406 672.640625 269.863281 672.640625 266.066406 C 672.640625 262.269531 675.71875 259.195312 679.515625 259.195312 C 683.308594 259.195312 686.386719 262.269531 686.386719 266.066406 Z M 686.386719 266.066406 "/>
<path style=" stroke:none;fill-rule:nonzero;fill:rgb(0%,0%,0%);fill-opacity:1;" d="M 680.515625 266.066406 C 680.515625 267.398438 678.515625 267.398438 678.515625 266.066406 C 678.515625 264.734375 680.515625 264.734375 680.515625 266.066406 Z M 680.515625 266.066406 "/>
<path style=" stroke:none;fill-rule:nonzero;fill:rgb(100%,75.686275%,40.784314%);fill-opacity:0.470588;" d="M 1342.347656 390.222656 C 1342.347656 394.019531 1339.269531 397.097656 1335.476562 397.097656 C 1331.679688 397.097656 1328.601562 394.019531 1328.601562 390.222656 C 1328.601562 386.425781 1331.679688 383.351562 1335.476562 383.351562 C 1339.269531 383.351562 1342.347656 386.425781 1342.347656 390.222656 Z M 1342.347656 390.222656 "/>
<path style=" stroke:none;fill-rule:nonzero;fill:rgb(0%,0%,0%);fill-opacity:1;" d="M 1336.476562 390.222656 C 1336.476562 391.558594 1334.476562 391.558594 1334.476562 390.222656 C 1334.476562 388.890625 1336.476562 388.890625 1336.476562 390.222656 Z M 1336.476562 390.222656 "/>
<path style=" stroke:none;fill-rule:nonzero;fill:rgb(40.784314%,100%,61.568627%);fill-opacity:0.470588;" d="M 1394.351562 578.144531 C 1394.351562 581.941406 1391.273438 585.015625 1387.476562 585.015625 C 1383.683594 585.015625 1380.605469 581.941406 1380.605469 578.144531 C 1380.605469 574.347656 1383.683594 571.269531 1387.476562 571.269531 C 1391.273438 571.269531 1394.351562 574.347656 1394.351562 578.144531 Z M 1394.351562 578.144531 "/>
<path style=" stroke:none;fill-rule:nonzero;fill:rgb(0%,0%,0%);fill-opacity:1;" d="M 1388.476562 578.144531 C 1388.476562 579.476562 1386.476562 579.476562 1386.476562 578.144531 C 1386.476562 576.8125 1388.476562 576.8125 1388.476562 578.144531 Z M 1388.476562 578.144531 "/>
<path style=" stroke:none;fill-rule:nonzero;fill:rgb(100%,75.686275%,40.784314%);fill-opacity:0.470588;" d="M 1089.265625 128.289062 C 1089.265625 132.082031 1086.191406 135.160156 1082.394531 135.160156 C 1078.597656 135.160156 1075.519531 132.082031 1075.519531 128.289062 C 1075.519531 124.492188 1078.597656 121.414062 1082.394531 121.414062 C 1086.191406 121.414062 1089.265625 124.492188 1089.265625 128.289062 Z M 1089.265625 128.289062 "/>
<path style=" stroke:none;fill-rule:nonzero;fill:rgb(0%,0%,0%);fill-opacity:1;" d="M 1083.394531 128.289062 C 1083.394531 129.621094 1081.394531 129.621094 1081.394531 128.289062 C 1081.394531 126.953125 1083.394531 126.953125 1083.394531 128.289062 Z M 1083.394531 128.289062 "/>
<path style=" stroke:none;fill-rule:nonzero;fill:rgb(100%,75.686275%,40.784314%);fill-opacity:0.470588;" d="M 724.917969 161.632812 C 724.917969 165.429688 721.839844 168.507812 718.042969 168.507812 C 714.246094 168.507812 711.171875 165.429688 711.171875 161.632812 C 711.171875 157.839844 714.246094 154.761719 718.042969 154.761719 C 721.839844 154.761719 724.917969 157.839844 724.917969 161.632812 Z M 724.917969 161.632812 "/>
<path style=" stroke:none;fill-rule:nonzero;fill:rgb(0%,0%,0%);fill-opacity:1;" d="M 719.042969 161.632812 C 719.042969 162.96875 717.042969 162.96875 717.042969 161.632812 C 717.042969 160.300781 719.042969 160.300781 719.042969 161.632812 Z M 719.042969 161.632812 "/>
<path style=" stroke:none;fill-rule:nonzero;fill:rgb(40.784314%,54.901961%,100%);fill-opacity:0.470588;" d="M 1304.964844 261.917969 C 1304.964844 268.398438 1295.242188 268.398438 1295.242188 261.917969 C 1295.242188 255.4375 1304.964844 255.4375 1304.964844 261.917969 Z M 1304.964844 261.917969 "/>
<path style=" stroke:none;fill-rule:nonzero;fill:rgb(0%,0%,0%);fill-opacity:1;" d="M 1301.105469 261.917969 C 1301.105469 263.25 1299.105469 263.25 1299.105469 261.917969 C 1299.105469 260.585938 1301.105469 260.585938 1301.105469 261.917969 Z M 1301.105469 261.917969 "/>
<path style=" stroke:none;fill-rule:nonzero;fill:rgb(100%,96.470588%,40.784314%);fill-opacity:0.470588;" d="M 756.214844 238.703125 C 756.214844 245.183594 746.492188 245.183594 746.492188 238.703125 C 746.492188 232.222656 756.214844 232.222656 756.214844 238.703125 Z M 756.214844 238.703125 "/>
<path style=" stroke:none;fill-rule:nonzero;fill:rgb(0%,0%,0%);fill-opacity:1;" d="M 752.355469 238.703125 C 752.355469 240.035156 750.355469 240.035156 750.355469 238.703125 C 750.355469 237.371094 752.355469 237.371094 752.355469 238.703125 Z M 752.355469 238.703125 "/>
<path style=" stroke:none;fill-rule:nonzero;fill:rgb(40.784314%,54.901961%,100%);fill-opacity:0.470588;" d="M 880.769531 159.691406 C 880.769531 166.171875 871.046875 166.171875 871.046875 159.691406 C 871.046875 153.210938 880.769531 153.210938 880.769531 159.691406 Z M 880.769531 159.691406 "/>
<path style=" stroke:none;fill-rule:nonzero;fill:rgb(0%,0%,0%);fill-opacity:1;" d="M 876.910156 159.691406 C 876.910156 161.027344 874.910156 161.027344 874.910156 159.691406 C 874.910156 158.359375 876.910156 158.359375 876.910156 159.691406 Z M 876.910156 159.691406 "/>
<path style=" stroke:none;fill-rule:nonzero;fill:rgb(100%,75.686275%,40.784314%);fill-opacity:0.470588;" d="M 1032.53125 161.945312 C 1032.53125 168.425781 1022.8125 168.425781 1022.8125 161.945312 C 1022.8125 155.464844 1032.53125 155.464844 1032.53125 161.945312 Z M 1032.53125 161.945312 "/>
<path style=" stroke:none;fill-rule:nonzero;fill:rgb(0%,0%,0%);fill-opacity:1;" d="M 1028.671875 161.945312 C 1028.671875 163.28125 1026.671875 163.28125 1026.671875 161.945312 C 1026.671875 160.613281 1028.671875 160.613281 1028.671875 161.945312 Z M 1028.671875 161.945312 "/>
<path style=" stroke:none;fill-rule:nonzero;fill:rgb(40.784314%,54.901961%,100%);fill-opacity:0.470588;" d="M 1203.5625 166.300781 C 1203.5625 172.78125 1193.839844 172.78125 1193.839844 166.300781 C 1193.839844 159.820312 1203.5625 159.820312 1203.5625 166.300781 Z M 1203.5625 166.300781 "/>
<path style=" stroke:none;fill-rule:nonzero;fill:rgb(0%,0%,0%);fill-opacity:1;" d="M 1199.699219 166.300781 C 1199.699219 167.632812 1197.699219 167.632812 1197.699219 166.300781 C 1197.699219 164.96875 1199.699219 164.96875 1199.699219 166.300781 Z M 1199.699219 166.300781 "/>
<path style=" stroke:none;fill-rule:nonzero;fill:rgb(100%,96.470588%,40.784314%);fill-opacity:0.470588;" d="M 1141.445312 91.671875 C 1141.445312 98.148438 1131.726562 98.148438 1131.726562 91.671875 C 1131.726562 85.191406 1141.445312 85.191406 1141.445312 91.671875 Z M 1141.445312 91.671875 "/>
<path style=" stroke:none;fill-rule:nonzero;fill:rgb(0%,0%,0%);fill-opacity:1;" d="M 1137.585938 91.671875 C 1137.585938 93.003906 1135.585938 93.003906 1135.585938 91.671875 C 1135.585938 90.335938 1137.585938 90.335938 1137.585938 91.671875 Z M 1137.585938 91.671875 "/>
<path style=" stroke:none;fill-rule:nonzero;fill:rgb(40.784314%,54.901961%,100%);fill-opacity:0.470588;" d="M 601.882812 463.144531 C 601.882812 469.625 592.164062 469.625 592.164062 463.144531 C 592.164062 456.664062 601.882812 456.664062 601.882812 463.144531 Z M 601.882812 463.144531 "/>
<path style=" stroke:none;fill-rule:nonzero;fill:rgb(0%,0%,0%);fill-opacity:1;" d="M 598.023438 463.144531 C 598.023438 464.480469 596.023438 464.480469 596.023438 463.144531 C 596.023438 461.8125 598.023438 461.8125 598.023438 463.144531 Z M 598.023438 463.144531 "/>
<path style=" stroke:none;fill-rule:nonzero;fill:rgb(40.784314%,100%,61.568627%);fill-opacity:0.470588;" d="M 910.632812 394.789062 C 910.632812 401.269531 900.914062 401.269531 900.914062 394.789062 C 900.914062 388.308594 910.632812 388.308594 910.632812 394.789062 Z M 910.632812 394.789062 "/>
<path style=" stroke:none;fill-rule:nonzero;fill:rgb(0%,0%,0%);fill-opacity:1;" d="M 906.773438 394.789062 C 906.773438 396.121094 904.773438 396.121094 904.773438 394.789062 C 904.773438 393.453125 906.773438 393.453125 906.773438 394.789062 Z M 906.773438 394.789062 "/>
<path style=" stroke:none;fill-rule:nonzero;fill:rgb(100%,96.470588%,40.784314%);fill-opacity:0.470588;" d="M 1226.136719 867.125 C 1226.136719 873.605469 1216.417969 873.605469 1216.417969 867.125 C 1216.417969 860.644531 1226.136719 860.644531 1226.136719 867.125 Z M 1226.136719 867.125 "/>
<path style=" stroke:none;fill-rule:nonzero;fill:rgb(0%,0%,0%);fill-opacity:1;" d="M 1222.277344 867.125 C 1222.277344 868.460938 1220.277344 868.460938 1220.277344 867.125 C 1220.277344 865.792969 1222.277344 865.792969 1222.277344 867.125 Z M 1222.277344 867.125 "/>
<path style=" stroke:none;fill-rule:nonzero;fill:rgb(40.784314%,54.901961%,100%);fill-opacity:0.470588;" d="M 1236.082031 869.832031 C 1236.082031 876.3125 1226.363281 876.3125 1226.363281 869.832031 C 1226.363281 863.351562 1236.082031 863.351562 1236.082031 869.832031 Z M 1236.082031 869.832031 "/>
<path style=" stroke:none;fill-rule:nonzero;fill:rgb(0%,0%,0%);fill-opacity:1;" d="M 1232.222656 869.832031 C 1232.222656 871.164062 1230.222656 871.164062 1230.222656 869.832031 C 1230.222656 868.496094 1232.222656 868.496094 1232.222656 869.832031 Z M 1232.222656 869.832031 "/>
<path style=" stroke:none;fill-rule:nonzero;fill:rgb(100%,40.784314%,89.411765%);fill-opacity:0.470588;" d="M 1336.957031 320.417969 C 1336.957031 326.898438 1327.234375 326.898438 1327.234375 320.417969 C 1327.234375 313.9375 1336.957031 313.9375 1336.957031 320.417969 Z M 1336.957031 320.417969 "/>
<path style=" stroke:none;fill-rule:nonzero;fill:rgb(0%,0%,0%);fill-opacity:1;" d="M 1333.09375 320.417969 C 1333.09375 321.75 1331.09375 321.75 1331.09375 320.417969 C 1331.09375 319.085938 1333.09375 319.085938 1333.09375 320.417969 Z M 1333.09375 320.417969 "/>
<path style=" stroke:none;fill-rule:nonzero;fill:rgb(100%,75.686275%,40.784314%);fill-opacity:0.470588;" d="M 853.28125 992.375 C 853.28125 998.855469 843.5625 998.855469 843.5625 992.375 C 843.5625 985.894531 853.28125 985.894531 853.28125 992.375 Z M 853.28125 992.375 "/>
<path style=" stroke:none;fill-rule:nonzero;fill:rgb(0%,0%,0%);fill-opacity:1;" d="M 849.421875 992.375 C 849.421875 993.707031 847.421875 993.707031 847.421875 992.375 C 847.421875 991.042969 849.421875 991.042969 849.421875 992.375 Z M 849.421875 992.375 "/>
<path style=" stroke:none;fill-rule:nonzero;fill:rgb(40.784314%,100%,61.568627%);fill-opacity:0.470588;" d="M 724.390625 886.5625 C 724.390625 893.042969 714.671875 893.042969 714.671875 886.5625 C 714.671875 880.082031 724.390625 880.082031 724.390625 886.5625 Z M 724.390625 886.5625 "/>
<path style=" stroke:none;fill-rule:nonzero;fill:rgb(0%,0%,0%);fill-opacity:1;" d="M 720.53125 886.5625 C 720.53125 887.894531 718.53125 887.894531 718.53125 886.5625 C 718.53125 885.226562 720.53125 885.226562 720.53125 886.5625 Z M 720.53125 886.5625 "/>
<path style=" stroke:none;fill-rule:nonzero;fill:rgb(40.784314%,54.901961%,100%);fill-opacity:0.470588;" d="M 685.457031 852.082031 C 685.457031 858.5625 675.738281 858.5625 675.738281 852.082031 C 675.738281 845.601562 685.457031 845.601562 685.457031 852.082031 Z M 685.457031 852.082031 "/>
<path style=" stroke:none;fill-rule:nonzero;fill:rgb(0%,0%,0%);fill-opacity:1;" d="M 681.597656 852.082031 C 681.597656 853.414062 679.597656 853.414062 679.597656 852.082031 C 679.597656 850.75 681.597656 850.75 681.597656 852.082031 Z M 681.597656 852.082031 "/>
<path style=" stroke:none;fill-rule:nonzero;fill:rgb(100%,40.784314%,89.411765%);fill-opacity:0.470588;" d="M 631.503906 830 C 631.503906 836.480469 621.785156 836.480469 621.785156 830 C 621.785156 823.519531 631.503906 823.519531 631.503906 830 Z M 631.503906 830 "/>
<path style=" stroke:none;fill-rule:nonzero;fill:rgb(0%,0%,0%);fill-opacity:1;" d="M 627.644531 830 C 627.644531 831.335938 625.644531 831.335938 625.644531 830 C 625.644531 828.667969 627.644531 828.667969 627.644531 830 Z M 627.644531 830 "/>
<path style=" stroke:none;fill-rule:nonzero;fill:rgb(100%,75.686275%,40.784314%);fill-opacity:0.470588;" d="M 579.21875 798.375 C 579.21875 804.855469 569.496094 804.855469 569.496094 798.375 C 569.496094 791.894531 579.21875 791.894531 579.21875 798.375 Z M 579.21875 798.375 "/>
<path style=" stroke:none;fill-rule:nonzero;fill:rgb(0%,0%,0%);fill-opacity:1;" d="M 575.355469 798.375 C 575.355469 799.707031 573.355469 799.707031 573.355469 798.375 C 573.355469 797.042969 575.355469 797.042969 575.355469 798.375 Z M 575.355469 798.375 "/>
<path style=" stroke:none;fill-rule:nonzero;fill:rgb(100%,40.784314%,89.411765%);fill-opacity:0.470588;" d="M 519.421875 515.988281 C 519.421875 522.46875 509.703125 522.46875 509.703125 515.988281 C 509.703125 509.507812 519.421875 509.507812 519.421875 515.988281 Z M 519.421875 515.988281 "/>
<path style=" stroke:none;fill-rule:nonzero;fill:rgb(0%,0%,0%);fill-opacity:1;" d="M 515.5625 515.988281 C 515.5625 517.320312 513.5625 517.320312 513.5625 515.988281 C 513.5625 514.65625 515.5625 514.65625 515.5625 515.988281 Z M 515.5625 515.988281 "/>
<path style=" stroke:none;fill-rule:nonzero;fill:rgb(100%,100%,100%);fill-opacity:0.470588;" d="M 1046.519531 661.265625 C 1046.519531 667.746094 1036.800781 667.746094 1036.800781 661.265625 C 1036.800781 654.785156 1046.519531 654.785156 1046.519531 661.265625 Z M 1046.519531 661.265625 "/>
<path style=" stroke:none;fill-rule:nonzero;fill:rgb(0%,0%,0%);fill-opacity:1;" d="M 1042.660156 661.265625 C 1042.660156 662.597656 1040.660156 662.597656 1040.660156 661.265625 C 1040.660156 659.933594 1042.660156 659.933594 1042.660156 661.265625 Z M 1042.660156 661.265625 "/>
<path style=" stroke:none;fill-rule:nonzero;fill:rgb(100%,75.686275%,40.784314%);fill-opacity:0.470588;" d="M 512.921875 454.996094 C 512.921875 461.472656 503.203125 461.472656 503.203125 454.996094 C 503.203125 448.515625 512.921875 448.515625 512.921875 454.996094 Z M 512.921875 454.996094 "/>
<path style=" stroke:none;fill-rule:nonzero;fill:rgb(0%,0%,0%);fill-opacity:1;" d="M 509.0625 454.996094 C 509.0625 456.328125 507.0625 456.328125 507.0625 454.996094 C 507.0625 453.660156 509.0625 453.660156 509.0625 454.996094 Z M 509.0625 454.996094 "/>
<path style=" stroke:none;fill-rule:nonzero;fill:rgb(100%,40.784314%,89.411765%);fill-opacity:0.470588;" d="M 1028.53125 97.671875 C 1028.53125 104.152344 1018.808594 104.152344 1018.808594 97.671875 C 1018.808594 91.191406 1028.53125 91.191406 1028.53125 97.671875 Z M 1028.53125 97.671875 "/>
<path style=" stroke:none;fill-rule:nonzero;fill:rgb(0%,0%,0%);fill-opacity:1;" d="M 1024.671875 97.671875 C 1024.671875 99.003906 1022.671875 99.003906 1022.671875 97.671875 C 1022.671875 96.339844 1024.671875 96.339844 1024.671875 97.671875 Z M 1024.671875 97.671875 "/>
<path style=" stroke:none;fill-rule:nonzero;fill:rgb(100%,100%,100%);fill-opacity:0.470588;" d="M 788.839844 155.125 C 788.839844 161.601562 779.121094 161.601562 779.121094 155.125 C 779.121094 148.644531 788.839844 148.644531 788.839844 155.125 Z M 788.839844 155.125 "/>
<path style=" stroke:none;fill-rule:nonzero;fill:rgb(0%,0%,0%);fill-opacity:1;" d="M 784.980469 155.125 C 784.980469 156.457031 782.980469 156.457031 782.980469 155.125 C 782.980469 153.789062 784.980469 153.789062 784.980469 155.125 Z M 784.980469 155.125 "/>
</g>
</svg>
